<?xml version="1.0" encoding="utf-8"?>
<!-- Generator: Adobe Illustrator 19.2.0, SVG Export Plug-In . SVG Version: 6.00 Build 0)  -->
<svg version="1.1" id="Layer_1" xmlns="http://www.w3.org/2000/svg" xmlns:xlink="http://www.w3.org/1999/xlink" x="0px" y="0px"
	 viewBox="0 0 66.3 66.3" style="enable-background:new 0 0 66.3 66.3;" xml:space="preserve">
<style type="text/css">
	.st0{fill:#FFFFFF;}
</style>
<g>
	<g>
		<path class="st0" d="M33.2,63.8c-16.9,0-30.7-13.8-30.7-30.7S16.3,2.5,33.2,2.5s30.7,13.8,30.7,30.7S50.1,63.8,33.2,63.8z
			 M33.2,6.5c-14.7,0-26.7,12-26.7,26.7s12,26.7,26.7,26.7s26.7-12,26.7-26.7S47.9,6.5,33.2,6.5z"/>
	</g>
	<g>
		<g>
			<path class="st0" d="M53,35.2c-1.1,0-2-0.9-2-2c0-9.9-8.1-18-18-18s-18,8.1-18,18c0,1.1-0.9,2-2,2s-2-0.9-2-2
				c0-12.1,9.9-22,22-22s22,9.9,22,22C55,34.3,54.2,35.2,53,35.2z"/>
		</g>
		<g>
			<path class="st0" d="M33.1,21.1c-1.1,0-2-0.9-2-2v-4.4c0-1.1,0.9-2,2-2c1.1,0,2,0.9,2,2v4.4C35.1,20.2,34.2,21.1,33.1,21.1z"/>
		</g>
		<g>
			<path class="st0" d="M22.5,24.8c-0.5,0-1-0.2-1.4-0.6L18,21.1c-0.8-0.8-0.8-2.1,0-2.8c0.8-0.8,2.1-0.8,2.8,0l3.1,3.1
				c0.8,0.8,0.8,2.1,0,2.8C23.5,24.6,23,24.8,22.5,24.8z"/>
		</g>
		<g>
			<path class="st0" d="M43.1,24.8c-0.5,0-1-0.2-1.4-0.6c-0.8-0.8-0.8-2.1,0-2.8l3.1-3.1c0.8-0.8,2.1-0.8,2.8,0
				c0.8,0.8,0.8,2.1,0,2.8l-3.1,3.1C44.1,24.6,43.6,24.8,43.1,24.8z"/>
		</g>
		<g>
			<path class="st0" d="M53,35.2h-4.4c-1.1,0-2-0.9-2-2c0-1.1,0.9-2,2-2H53c1.1,0,2,0.9,2,2C55,34.3,54.2,35.2,53,35.2z"/>
		</g>
		<g>
			<path class="st0" d="M17.5,35.2h-4.4c-1.1,0-2-0.9-2-2c0-1.1,0.9-2,2-2h4.4c1.1,0,2,0.9,2,2C19.5,34.3,18.6,35.2,17.5,35.2z"/>
		</g>
	</g>
	<g>
		<path class="st0" d="M33.1,46.5c-2.9,0-5.2-2.3-5.2-5.2c0-2.9,2.3-5.2,5.2-5.2s5.2,2.3,5.2,5.2C38.3,44.1,35.9,46.5,33.1,46.5z
			 M33.1,40.1c-0.7,0-1.2,0.5-1.2,1.2c0,0.7,0.5,1.2,1.2,1.2c0.7,0,1.2-0.5,1.2-1.2C34.3,40.6,33.7,40.1,33.1,40.1z"/>
	</g>
	<g>
		<path class="st0" d="M33.1,40.2c-1.1,0-2-0.9-2-2v-9c0-1.1,0.9-2,2-2c1.1,0,2,0.9,2,2v9C35.1,39.3,34.2,40.2,33.1,40.2z"/>
	</g>
</g>
</svg>
