<?xml version="1.0" encoding="utf-8"?>
<!-- Generator: Adobe Illustrator 19.2.0, SVG Export Plug-In . SVG Version: 6.00 Build 0)  -->
<svg version="1.1" xmlns="http://www.w3.org/2000/svg" xmlns:xlink="http://www.w3.org/1999/xlink" x="0px" y="0px"
	 viewBox="0 0 150.5 150.5" style="enable-background:new 0 0 150.5 150.5;" xml:space="preserve">
<style type="text/css">
	.st0{display:none;}
	.st1{display:inline;}
	.st2{fill:#6A2949;}
	.st3{fill:#F3654F;}
</style>
<g id="My_Home" class="st0">
	<g class="st1">
		<g>
			<path class="st2" d="M137.2,143.7H102c-2.2,0-4-1.8-4-4v-30.1H80.2v30.1c0,2.2-1.8,4-4,4H41.1c-2.2,0-4-1.8-4-4V92.2
				c0-2.2,1.8-4,4-4s4,1.8,4,4v43.6h27.2v-30.1c0-2.2,1.8-4,4-4H102c2.2,0,4,1.8,4,4v30.1h27.3V69.7l-44-44.7L73.1,41.1
				c-1.6,1.6-4.1,1.6-5.7,0c-1.6-1.6-1.6-4.1,0-5.7l19-19c0.8-0.8,1.8-1.2,2.8-1.2c0,0,0,0,0,0c1.1,0,2.1,0.4,2.8,1.2l48,48.8
				c0.7,0.7,1.1,1.8,1.1,2.8v71.7C141.2,142,139.4,143.7,137.2,143.7z"/>
		</g>
		<g>
			<path class="st2" d="M41.3,56.3c-9.4,0-17-7.6-17-17s7.6-17,17-17s17,7.6,17,17S50.7,56.3,41.3,56.3z M41.3,30.3c-5,0-9,4-9,9
				s4,9,9,9s9-4,9-9S46.3,30.3,41.3,30.3z"/>
		</g>
		<g>
			<path class="st3" d="M41.3,96.7C41.3,96.7,41.3,96.7,41.3,96.7c-1.3,0-2.5-0.6-3.2-1.6c-4.5-6.2-12.5-18.9-13.3-20.1
				c-0.7-1.1-1.4-2.3-2.2-3.5C18.6,65,14,57.7,11.4,50v0c-1.8-5.2-2.4-9.9-2-14.3c1.6-16.5,15.4-29,31.9-29c7.1,0,13.8,2.3,19.4,6.6
				c8.1,6.2,12.7,15.5,12.7,25.7c0,6.5-3.8,16.1-11.5,29.5c-3,5.2-6.6,10.9-10.6,16.8c-3.7,5.5-6.5,9.3-6.8,9.7
				C43.8,96.1,42.6,96.7,41.3,96.7z M19,47.4c2.3,6.8,6.6,13.7,10.4,19.8c0.8,1.2,1.5,2.4,2.2,3.5c1,1.6,5.7,9.1,9.7,15
				c1-1.4,2.1-3,3.3-4.8c3.9-5.8,7.3-11.3,10.3-16.4C64,48.8,65.4,41.8,65.4,39c0-7.6-3.5-14.7-9.5-19.3c-4.2-3.2-9.2-4.9-14.5-4.9
				c-12.4,0-22.7,9.4-23.9,21.8C17,39.8,17.6,43.3,19,47.4L19,47.4z"/>
		</g>
	</g>
</g>
<g id="Layer_2">
	<g>
		<g>
			<path class="st2" d="M75.2,145.7c-38.9,0-70.5-31.6-70.5-70.5S36.4,4.8,75.2,4.8s70.5,31.6,70.5,70.5S114.1,145.7,75.2,145.7z
				 M75.2,14C41.5,14,14,41.5,14,75.2s27.5,61.3,61.3,61.3s61.3-27.5,61.3-61.3S109,14,75.2,14z"/>
		</g>
		<g>
			<g>
				<path class="st3" d="M120.9,79.9c-2.5,0-4.6-2.1-4.6-4.6C116.3,52.5,97.8,34,75,34S33.7,52.5,33.7,75.2c0,2.5-2.1,4.6-4.6,4.6
					s-4.6-2.1-4.6-4.6c0-27.8,22.7-50.5,50.5-50.5s50.5,22.7,50.5,50.5C125.5,77.8,123.4,79.9,120.9,79.9z"/>
			</g>
			<g>
				<path class="st3" d="M75,47.5c-2.5,0-4.6-2.1-4.6-4.6V32.7c0-2.5,2.1-4.6,4.6-4.6s4.6,2.1,4.6,4.6v10.1
					C79.6,45.4,77.5,47.5,75,47.5z"/>
			</g>
			<g>
				<path class="st3" d="M50.8,56c-1.2,0-2.4-0.4-3.3-1.3l-7.2-7.2c-1.8-1.8-1.8-4.7,0-6.5c1.8-1.8,4.7-1.8,6.5,0l7.2,7.2
					c1.8,1.8,1.8,4.7,0,6.5C53.2,55.5,52,56,50.8,56z"/>
			</g>
			<g>
				<path class="st3" d="M98,56c-1.2,0-2.4-0.4-3.3-1.3c-1.8-1.8-1.8-4.7,0-6.5l7.2-7.2c1.8-1.8,4.7-1.8,6.5,0
					c1.8,1.8,1.8,4.7,0,6.5l-7.2,7.2C100.3,55.5,99.2,56,98,56z"/>
			</g>
			<g>
				<path class="st3" d="M120.9,79.9h-10.1c-2.5,0-4.6-2.1-4.6-4.6s2.1-4.6,4.6-4.6h10.1c2.5,0,4.6,2.1,4.6,4.6
					S123.4,79.9,120.9,79.9z"/>
			</g>
			<g>
				<path class="st3" d="M39.2,79.9H29.1c-2.5,0-4.6-2.1-4.6-4.6s2.1-4.6,4.6-4.6h10.1c2.5,0,4.6,2.1,4.6,4.6S41.8,79.9,39.2,79.9z"
					/>
			</g>
		</g>
		<g>
			<path class="st3" d="M75,105.8c-6.6,0-12-5.4-12-12c0-6.6,5.4-12,12-12s12,5.4,12,12C87,100.4,81.6,105.8,75,105.8z M75,91.1
				c-1.5,0-2.8,1.2-2.8,2.8c0,1.5,1.2,2.8,2.8,2.8c1.5,0,2.8-1.2,2.8-2.8C77.8,92.3,76.5,91.1,75,91.1z"/>
		</g>
		<g>
			<path class="st3" d="M75,91.5c-2.5,0-4.6-2.1-4.6-4.6V66.2c0-2.5,2.1-4.6,4.6-4.6s4.6,2.1,4.6,4.6v20.7
				C79.6,89.4,77.5,91.5,75,91.5z"/>
		</g>
	</g>
</g>
</svg>
