<?xml version="1.0" encoding="utf-8"?>
<!-- Generator: Adobe Illustrator 19.1.0, SVG Export Plug-In . SVG Version: 6.00 Build 0)  -->
<svg version="1.1" id="Layer_1" xmlns="http://www.w3.org/2000/svg" xmlns:xlink="http://www.w3.org/1999/xlink" x="0px" y="0px"
	 viewBox="0 0 445.1 430.7" style="enable-background:new 0 0 445.1 430.7;" xml:space="preserve">
<style type="text/css">
	.st0{fill:#6A2A4A;}
	.st1{opacity:0.4;fill:#6A2A4A;}
	.st2{fill:none;stroke:#6A2A4A;stroke-width:4;stroke-linejoin:round;stroke-miterlimit:10;}
</style>
<g>
	<g>
		<path class="st0" d="M236.9,210.8h-108c-1.1,0-2-0.9-2-2v-46.5c0-1.1,0.9-2,2-2h108c1.1,0,2,0.9,2,2v46.5
			C238.9,209.9,238,210.8,236.9,210.8z M130.8,206.8h104v-42.5h-104V206.8z"/>
	</g>
	<g>
		<path class="st0" d="M236.9,185.8H130c-1.1,0-2-0.9-2-2s0.9-2,2-2h106.9c1.1,0,2,0.9,2,2S238,185.8,236.9,185.8z"/>
	</g>
	<g>
		<path class="st0" d="M182.8,185.8c-1.1,0-2-0.9-2-2v-21.2c0-1.1,0.9-2,2-2s2,0.9,2,2v21.2C184.8,184.9,184,185.8,182.8,185.8z"/>
	</g>
	<path class="st1" d="M307.4,229.2h65.7c2,0,3.7-1.7,3.7-3.8v-4.2c0-2.1-1.6-3.8-3.7-3.8h-65.7c-2,0-3.7,1.7-3.7,3.8v4.2
		C303.7,227.5,305.3,229.2,307.4,229.2z"/>
	<path class="st1" d="M130.4,229.2h106c2,0,3.7-1.7,3.7-3.8v-4.2c0-2.1-1.6-3.8-3.7-3.8h-106c-2,0-3.7,1.7-3.7,3.8v4.2
		C126.7,227.5,128.3,229.2,130.4,229.2z"/>
	<g>
		<path class="st0" d="M340.1,209.3c-1.1,0-2-0.9-2-2v-44c0-1.1,0.9-2,2-2s2,0.9,2,2v44C342.1,208.4,341.2,209.3,340.1,209.3z"/>
	</g>
	<g>
		<path class="st0" d="M375.3,210.8h-70.4c-1.1,0-2-0.9-2-2v-46.5c0-1.1,0.9-2,2-2h70.4c1.1,0,2,0.9,2,2v46.5
			C377.3,209.9,376.4,210.8,375.3,210.8z M306.9,206.8h66.4v-42.5h-66.4V206.8z"/>
	</g>
	<g>
		<path class="st0" d="M289.8,335.5H260c-1.1,0-2-0.9-2-2v-44.2c0-1.1,0.9-2,2-2h29.8c1.1,0,2,0.9,2,2v44.2
			C291.8,334.6,290.9,335.5,289.8,335.5z M262,331.5h25.8v-40.2H262V331.5z"/>
	</g>
	<path class="st1" d="M261.7,353.2h25.7c2,0,3.7-1.7,3.7-3.8v-4.2c0-2.1-1.6-3.8-3.7-3.8h-25.7c-2,0-3.7,1.7-3.7,3.8v4.2
		C258,351.5,259.6,353.2,261.7,353.2z"/>
	<g>
		<path class="st0" d="M288.5,308.3h-27.2c-1.1,0-2-0.9-2-2s0.9-2,2-2h27.2c1.1,0,2,0.9,2,2S289.6,308.3,288.5,308.3z"/>
	</g>
	<g>
		<path class="st0" d="M433.3,130.8L411.8,30.2h-28.6v-4h30.2c0.9,0,1.8,0.7,2,1.6l21.9,102.1L433.3,130.8z"/>
	</g>
	<g>
		<path class="st0" d="M79.4,130.8l-3.9-0.8L97.3,27.8c0.2-0.9,1-1.6,2-1.6H346v4H100.9L79.4,130.8z"/>
	</g>
	<g>
		<path class="st0" d="M435.3,405.1H221.8v-4h211.5V132.4h-29.9c-0.5,0-0.9-0.2-1.3-0.5l-62-53.4l-62,53.4c-0.4,0.3-0.8,0.5-1.3,0.5
			H79.4v105.4h-4V130.4c0-1.1,0.9-2,2-2H276l62.8-54.1c0.8-0.6,1.9-0.6,2.6,0l62.8,54.1h31.2c1.1,0,2,0.9,2,2v272.7
			C437.3,404.2,436.4,405.1,435.3,405.1z"/>
	</g>
	<g>
		<path class="st2" d="M221.8,287.5"/>
	</g>
	<g>
		<path class="st0" d="M220.8,422.1H9.8c-1.1,0-2-0.9-2-2V287.5c0-0.2,0-0.4,0.1-0.5l13.7-49.7c0.2-0.9,1-1.5,1.9-1.5h184.5
			c0.9,0,1.7,0.6,1.9,1.5l12.7,49.7c0,0.2,0.1,0.3,0.1,0.5v132.6C222.8,421.2,221.9,422.1,220.8,422.1z M11.8,418.1h207V287.7
			l-12.3-48H25.1l-13.3,48V418.1z"/>
	</g>
	<g>
		<path class="st2" d="M221.8,300.5"/>
	</g>
	<g>
		<path class="st0" d="M202.5,421.7H30.6c-1.1,0-2-0.9-2-2V303.9c0-1.1,0.9-2,2-2h171.8c1.1,0,2,0.9,2,2v115.7
			C204.5,420.8,203.6,421.7,202.5,421.7z M32.6,417.7h167.8V305.9H32.6V417.7z"/>
	</g>
	<g>
		<rect x="30.6" y="320.8" class="st0" width="171.8" height="4"/>
	</g>
	<g>
		<rect x="30.6" y="340.5" class="st0" width="171.8" height="4"/>
	</g>
	<g>
		<rect x="30.6" y="360.2" class="st0" width="171.8" height="4"/>
	</g>
	<g>
		<rect x="30.6" y="379.9" class="st0" width="171.8" height="4"/>
	</g>
	<g>
		<rect x="30.6" y="398.9" class="st0" width="171.8" height="4"/>
	</g>
	<g>
		<path class="st0" d="M384.6,134.8l-44.4-38.2l-44.4,38.2l-2.6-3l45.7-39.4c0.8-0.6,1.9-0.6,2.6,0l45.7,39.4L384.6,134.8z"/>
	</g>
	<g>
		<g>
			<g>
				<g>
					<path class="st2" d="M98.7,43.7"/>
				</g>
				<g>
					<path class="st0" d="M122.2,52.8c-5.1,0-9.3-3.9-9.8-9l4-0.4c0.3,3.1,2.8,5.4,5.8,5.4c3,0,5.5-2.3,5.8-5.3l4,0.4
						C131.4,49,127.2,52.8,122.2,52.8z"/>
				</g>
				<g>
					<path class="st0" d="M137.8,52.8c-5.1,0-9.3-3.9-9.8-9l4-0.4c0.3,3.1,2.8,5.4,5.8,5.4c3,0,5.5-2.3,5.8-5.3l4,0.4
						C147,49,142.8,52.8,137.8,52.8z"/>
				</g>
				<g>
					<path class="st0" d="M153.4,52.8c-5.1,0-9.3-3.9-9.8-9l4-0.4c0.3,3.1,2.8,5.4,5.8,5.4c3,0,5.5-2.3,5.8-5.3l4,0.4
						C162.7,49,158.4,52.8,153.4,52.8z"/>
				</g>
				<g>
					<path class="st0" d="M169.1,52.8c-5.1,0-9.3-3.9-9.8-9l4-0.4c0.3,3.1,2.8,5.4,5.8,5.4c3,0,5.5-2.3,5.8-5.3l4,0.4
						C178.3,49,174.1,52.8,169.1,52.8z"/>
				</g>
				<g>
					<path class="st0" d="M184.7,52.8c-5.1,0-9.3-3.9-9.8-9l4-0.4c0.3,3.1,2.8,5.4,5.8,5.4c3,0,5.5-2.3,5.8-5.3l4,0.4
						C193.9,49,189.7,52.8,184.7,52.8z"/>
				</g>
				<g>
					<path class="st0" d="M200.3,52.8c-5.1,0-9.3-3.9-9.8-9l4-0.4c0.3,3.1,2.8,5.4,5.8,5.4c3,0,5.5-2.3,5.8-5.3l4,0.4
						C209.6,49,205.3,52.8,200.3,52.8z"/>
				</g>
				<g>
					<path class="st0" d="M216,52.8c-5.1,0-9.3-3.9-9.8-9l4-0.4c0.3,3.1,2.8,5.4,5.8,5.4c3,0,5.5-2.3,5.8-5.3l4,0.4
						C225.2,49,221,52.8,216,52.8z"/>
				</g>
				<g>
					<path class="st0" d="M231.6,52.8c-5.1,0-9.3-3.9-9.8-9l4-0.4c0.3,3.1,2.8,5.4,5.8,5.4c3,0,5.5-2.3,5.8-5.3l4,0.4
						C240.8,49,236.6,52.8,231.6,52.8z"/>
				</g>
			</g>
			<g>
				<g>
					<path class="st0" d="M247.2,52.8c-5.1,0-9.3-3.9-9.8-9l4-0.4c0.3,3.1,2.8,5.4,5.8,5.4c3,0,5.5-2.3,5.8-5.3l4,0.4
						C256.5,49,252.3,52.8,247.2,52.8z"/>
				</g>
				<g>
					<path class="st0" d="M262.9,52.8c-5.1,0-9.3-3.9-9.8-9l4-0.4c0.3,3.1,2.8,5.4,5.8,5.4c3,0,5.5-2.3,5.8-5.3l4,0.4
						C272.1,49,267.9,52.8,262.9,52.8z"/>
				</g>
				<g>
					<path class="st0" d="M278.5,52.8c-5.1,0-9.3-3.9-9.8-9l4-0.4c0.3,3.1,2.8,5.4,5.8,5.4c3,0,5.5-2.3,5.8-5.3l4,0.4
						C287.7,49,283.5,52.8,278.5,52.8z"/>
				</g>
				<g>
					<path class="st0" d="M294.1,52.8c-5.1,0-9.3-3.9-9.8-9l4-0.4c0.3,3.1,2.8,5.4,5.8,5.4c3,0,5.5-2.3,5.8-5.3l4,0.4
						C303.4,49,299.2,52.8,294.1,52.8z"/>
				</g>
				<g>
					<path class="st0" d="M309.8,52.8c-5.1,0-9.3-3.9-9.8-9l4-0.4c0.3,3.1,2.8,5.4,5.8,5.4c3,0,5.5-2.3,5.8-5.3l4,0.4
						C319,49,314.8,52.8,309.8,52.8z"/>
				</g>
				<g>
					<path class="st0" d="M325.4,52.8c-5.1,0-9.3-3.9-9.8-9l4-0.4c0.3,3.1,2.8,5.4,5.8,5.4c3,0,5.5-2.3,5.8-5.3l4,0.4
						C334.6,49,330.4,52.8,325.4,52.8z"/>
				</g>
			</g>
		</g>
	</g>
	<g>
		<path class="st0" d="M374.3,404.1c-1.1,0-2-0.9-2-2V290.8h-64.2v111.3c0,1.1-0.9,2-2,2s-2-0.9-2-2V288.8c0-1.1,0.9-2,2-2h68.2
			c1.1,0,2,0.9,2,2v113.3C376.3,403.2,375.4,404.1,374.3,404.1z"/>
	</g>
	<g>
		<path class="st0" d="M332.9,358.8h-14.4c-1.1,0-2-0.9-2-2v-53.2c0-1.1,0.9-2,2-2h14.4c1.1,0,2,0.9,2,2v53.2
			C334.9,357.9,334,358.8,332.9,358.8z M320.5,354.8h10.4v-49.2h-10.4V354.8z"/>
	</g>
	<g>
		<path class="st0" d="M361.9,358.8h-14.4c-1.1,0-2-0.9-2-2v-53.2c0-1.1,0.9-2,2-2h14.4c1.1,0,2,0.9,2,2v53.2
			C363.9,357.9,363,358.8,361.9,358.8z M349.5,354.8h10.4v-49.2h-10.4V354.8z"/>
	</g>
	<g>
		<path class="st0" d="M383.2,21.4c-1.1,0-2-0.9-2-2v-8.7c-0.1,0-0.2-0.1-0.4-0.1h-8.4c-0.2,0-0.4,0.1-0.4,0.1v7.5c0,1.1-0.9,2-2,2
			s-2-0.9-2-2v-7.6c0-2.2,2-4,4.4-4h8.4c2.4,0,4.4,1.8,4.4,4v8.9C385.2,20.5,384.3,21.4,383.2,21.4z"/>
	</g>
	<g>
		<path class="st0" d="M383.2,53.3h-37c-1.1,0-2-0.9-2-2V18.6c0-1.1,0.9-2,2-2h37c1.1,0,2,0.9,2,2v32.8
			C385.2,52.4,384.3,53.3,383.2,53.3z M348.2,49.3h33V20.6h-33V49.3z"/>
	</g>
	<g>
		<path class="st0" d="M220.5,290.2h-210c-1.1,0-2-0.9-2-2s0.9-2,2-2h210c1.1,0,2,0.9,2,2S221.6,290.2,220.5,290.2z"/>
	</g>
	<rect x="30.5" y="304.2" class="st1" width="171" height="114"/>
</g>
</svg>
