<?xml version="1.0" encoding="utf-8"?>
<!-- Generator: Adobe Illustrator 19.1.0, SVG Export Plug-In . SVG Version: 6.00 Build 0)  -->
<svg version="1.1" id="Layer_1" xmlns="http://www.w3.org/2000/svg" xmlns:xlink="http://www.w3.org/1999/xlink" x="0px" y="0px"
	 viewBox="-93 383.6 409 75.3" style="enable-background:new -93 383.6 409 75.3;" xml:space="preserve">
<style type="text/css">
	.st0{fill:#6A294A;}
	.st1{fill:#FFFFFF;}
	.st2{fill:none;stroke:#FFFFFF;stroke-width:3;stroke-linecap:round;stroke-linejoin:round;stroke-miterlimit:10;}
</style>
<g>
	<g>
		<path class="st0" d="M35.9,387.8c-0.9,0-1.5,0.2-2,0.5c-0.4,0.3-0.8,0.8-1,1.4l-9.3,22.2l-9.3-22.2c-0.3-0.6-0.6-1.1-1.1-1.4
			c-0.5-0.3-1.1-0.5-2-0.5c-0.9,0-1.6,0.2-2.1,0.6c-0.6,0.4-0.9,1.1-0.9,2.1v25.8c0,0.8,0.2,1.4,0.7,1.7c0.4,0.3,0.9,0.5,1.6,0.5
			c0.7,0,1.2-0.2,1.6-0.5c0.5-0.3,0.7-0.9,0.7-1.7v-18.8l8,18.9c0.2,0.5,0.5,0.9,0.9,1.2c0.4,0.4,1,0.5,1.7,0.5s1.3-0.2,1.7-0.5
			c0.4-0.3,0.7-0.7,0.9-1.2l8-18.9v18.8c0,0.8,0.2,1.4,0.7,1.7c0.4,0.3,1,0.5,1.6,0.5c0.7,0,1.2-0.2,1.6-0.5
			c0.4-0.3,0.7-0.9,0.7-1.7v-25.8c0-1-0.3-1.7-0.8-2.1C37.5,388,36.8,387.8,35.9,387.8z"/>
		<path class="st0" d="M60.7,396.3c-0.5-0.3-1.1-0.5-1.6-0.5c-0.5,0-0.8,0.1-1.1,0.4c-0.3,0.2-0.5,0.6-0.7,1l-6.1,14.2l-5.7-14.1
			c-0.5-1.2-1.3-1.5-1.9-1.5c-0.6,0-1.2,0.2-1.7,0.5c-0.6,0.4-0.9,0.9-0.9,1.6c0,0.3,0.1,0.6,0.2,0.9c0.1,0.2,0.2,0.5,0.3,0.8
			l7.2,17.4l-2.9,6.6c-0.2,0.3-0.3,0.6-0.3,0.8c0,0.2-0.1,0.4-0.1,0.6c0,0.6,0.2,1.2,0.7,1.5c0.4,0.3,0.9,0.5,1.5,0.5
			c0.6,0,1-0.1,1.3-0.4c0.3-0.2,0.5-0.6,0.8-1.1l11.4-26.2c0.1-0.3,0.2-0.5,0.3-0.7c0.1-0.3,0.2-0.6,0.2-0.8
			C61.6,397.1,61.3,396.6,60.7,396.3z"/>
		<path class="st0" d="M93.3,388.3c-0.4-0.3-1-0.5-1.7-0.5c-0.7,0-1.3,0.2-1.7,0.5c-0.5,0.4-0.7,0.9-0.7,1.7v10H74.6v-10
			c0-0.8-0.2-1.4-0.7-1.7c-0.4-0.3-1-0.5-1.7-0.5c-0.7,0-1.3,0.2-1.7,0.5c-0.5,0.4-0.7,0.9-0.7,1.8v26.1c0,0.8,0.2,1.4,0.7,1.8
			c0.4,0.3,1,0.5,1.7,0.5c0.7,0,1.3-0.2,1.7-0.5c0.5-0.4,0.7-0.9,0.7-1.7v-11.8h14.7v11.8c0,0.8,0.2,1.4,0.7,1.7
			c0.4,0.3,1,0.5,1.7,0.5c0.7,0,1.3-0.2,1.7-0.5c0.5-0.4,0.7-0.9,0.7-1.8V390C94,389.2,93.8,388.6,93.3,388.3z"/>
		<path class="st0" d="M115.9,398.5c-1-1-2.1-1.8-3.4-2.3c-1.3-0.5-2.8-0.8-4.4-0.8c-1.6,0-3.1,0.3-4.4,0.8
			c-1.3,0.5-2.5,1.3-3.4,2.3c-1,1-1.7,2.3-2.2,3.7c-0.5,1.4-0.8,3.1-0.8,4.9c0,1.8,0.3,3.5,0.8,4.9c0.5,1.5,1.2,2.7,2.2,3.7
			c1,1,2.1,1.8,3.4,2.3c1.3,0.5,2.8,0.8,4.4,0.8s3.1-0.3,4.4-0.8c1.3-0.5,2.5-1.3,3.4-2.3c1-1,1.7-2.3,2.2-3.7
			c0.5-1.4,0.8-3.1,0.8-4.9s-0.3-3.4-0.8-4.9C117.6,400.7,116.9,399.5,115.9,398.5z M114.1,407.1c0,2.4-0.5,4.3-1.6,5.6
			c-1,1.3-2.5,2-4.4,2c-1.9,0-3.4-0.6-4.4-2c-1-1.3-1.6-3.2-1.6-5.6c0-2.4,0.5-4.3,1.6-5.6c1-1.3,2.5-1.9,4.4-1.9
			c1.9,0,3.4,0.6,4.4,1.9C113.6,402.8,114.1,404.7,114.1,407.1z"/>
		<path class="st0" d="M146,395.4c-1.8,0-3.3,0.4-4.6,1.1c-1,0.6-1.8,1.3-2.4,2.1c-0.5-0.9-1.2-1.6-2.1-2.1
			c-1.2-0.7-2.6-1.1-4.4-1.1c-1.3,0-2.5,0.2-3.4,0.6c-0.9,0.4-1.6,0.9-2.2,1.4c-0.2,0.2-0.4,0.4-0.5,0.6v0c0-0.8-0.2-1.3-0.6-1.7
			c-0.4-0.3-0.9-0.4-1.6-0.4c-0.7,0-1.2,0.1-1.6,0.4c-0.4,0.3-0.6,0.9-0.6,1.7v18.3c0,0.8,0.2,1.4,0.7,1.7c0.4,0.3,0.9,0.5,1.6,0.5
			c0.7,0,1.2-0.2,1.6-0.5c0.5-0.3,0.7-0.9,0.7-1.7v-8.9c0-0.9,0.1-1.9,0.3-2.8c0.2-0.9,0.5-1.7,0.8-2.5c0.4-0.7,0.9-1.3,1.5-1.7
			c0.6-0.4,1.4-0.6,2.4-0.6c0.8,0,1.5,0.1,2,0.3c0.5,0.2,0.9,0.5,1.1,0.8c0.3,0.4,0.5,0.8,0.6,1.4c0.1,0.6,0.2,1.3,0.2,2v12.1
			c0,0.7,0.3,2,2.4,2c1.4,0,2.2-0.7,2.2-2v-9.1c0-0.9,0.1-1.9,0.3-2.8c0.2-0.9,0.5-1.7,0.8-2.5c0.4-0.7,0.9-1.3,1.5-1.7
			c0.6-0.4,1.4-0.7,2.4-0.7c0.8,0,1.5,0.1,2,0.3c0.5,0.2,0.9,0.5,1.1,0.8c0.3,0.4,0.5,0.8,0.6,1.4c0.1,0.6,0.2,1.3,0.2,2v12.1
			c0,0.7,0.3,2,2.4,2c1.4,0,2.2-0.7,2.2-2v-13.3c0-2.6-0.7-4.6-2.1-5.8C150.2,396,148.3,395.4,146,395.4z"/>
		<path class="st0" d="M174.8,398.6c-0.9-1-1.9-1.8-3.2-2.4c-1.3-0.6-2.7-0.9-4.4-0.9c-1.6,0-3.1,0.3-4.4,0.9
			c-1.3,0.6-2.4,1.4-3.4,2.4c-0.9,1-1.6,2.3-2.1,3.7c-0.5,1.4-0.7,3-0.7,4.7c0,1.7,0.2,3.3,0.7,4.7c0.5,1.4,1.2,2.7,2.2,3.7
			c0.9,1,2.1,1.9,3.4,2.4c1.3,0.6,2.8,0.9,4.4,0.9c1.2,0,2.3-0.1,3.3-0.4c0.9-0.3,1.7-0.7,2.4-1.1c0.7-0.4,1.2-0.9,1.6-1.4
			c0.4-0.5,0.8-0.9,1-1.3c0.4-0.6,0.5-1.1,0.5-1.6c0-0.6-0.3-1.1-0.8-1.4c-0.9-0.6-2-0.6-2.6-0.1c-0.2,0.2-0.4,0.4-0.7,0.7
			c-0.2,0.2-0.4,0.5-0.6,0.8c-0.2,0.3-0.5,0.5-0.9,0.8c-0.4,0.3-0.8,0.5-1.4,0.7c-0.5,0.2-1.2,0.3-1.9,0.3c-1.9,0-3.4-0.5-4.4-1.7
			c-0.9-1-1.5-2.5-1.5-4.3h13.7c1.4,0,2.2-0.7,2.2-2c0-1.6-0.2-3-0.7-4.4C176.3,400.9,175.7,399.6,174.8,398.6z M161.8,404.4
			c0.1-0.5,0.2-1.1,0.4-1.6c0.3-0.7,0.6-1.3,1.1-1.8c0.5-0.5,1-0.9,1.7-1.2c0.7-0.3,1.4-0.4,2.3-0.4c0.9,0,1.7,0.2,2.3,0.5
			c0.7,0.3,1.2,0.7,1.6,1.2c0.4,0.5,0.8,1.1,1,1.7c0.2,0.5,0.3,1,0.4,1.6H161.8z"/>
		<path class="st0" d="M206.6,392.3c0.7,0,1.2-0.2,1.6-0.6c0.3-0.4,0.5-0.9,0.5-1.6c0-0.7-0.2-1.2-0.5-1.5c-0.3-0.4-0.9-0.6-1.6-0.6
			h-16.5c-0.7,0-1.3,0.2-1.7,0.5c-0.5,0.4-0.7,1-0.7,1.8v25.4c0,0.8,0.2,1.4,0.7,1.8c0.4,0.4,1,0.5,1.7,0.5h16.5
			c0.7,0,1.2-0.2,1.6-0.6c0.3-0.4,0.5-0.9,0.5-1.6c0-0.7-0.2-1.2-0.5-1.5c-0.3-0.4-0.9-0.6-1.6-0.6h-14.3v-8.9h13.5
			c0.7,0,1.3-0.2,1.6-0.6c0.3-0.4,0.5-0.9,0.5-1.6c0-0.7-0.2-1.2-0.5-1.5c-0.3-0.4-0.9-0.6-1.6-0.6h-13.5v-8.3H206.6z"/>
		<path class="st0" d="M222.5,395.4c-1.4,0-2.7,0.2-3.6,0.7c-0.9,0.4-1.7,0.9-2.3,1.5c-0.3,0.2-0.5,0.5-0.7,0.7v-0.3
			c0-0.8-0.2-1.3-0.6-1.7c-0.4-0.3-0.9-0.4-1.6-0.4c-0.7,0-1.2,0.1-1.6,0.4c-0.4,0.3-0.6,0.9-0.6,1.7v18.3c0,0.8,0.2,1.4,0.7,1.7
			c0.4,0.3,0.9,0.5,1.6,0.5c0.7,0,1.2-0.2,1.6-0.5c0.5-0.3,0.7-0.9,0.7-1.7v-8.9c0-0.9,0.1-1.8,0.3-2.7c0.2-0.9,0.6-1.7,1-2.5
			c0.4-0.7,1-1.3,1.7-1.7c0.7-0.4,1.5-0.7,2.5-0.7c1.6,0,2.7,0.4,3.3,1.1c0.6,0.8,0.9,1.9,0.9,3.4v12.1c0,0.7,0.3,2,2.4,2
			c1.4,0,2.2-0.7,2.2-2v-13c0-2.7-0.7-4.7-2.2-6C226.7,396,224.8,395.4,222.5,395.4z"/>
		<path class="st0" d="M251.6,398.6c-0.9-1-1.9-1.8-3.2-2.4c-1.3-0.6-2.7-0.9-4.4-0.9c-1.6,0-3.1,0.3-4.4,0.9
			c-1.3,0.6-2.4,1.4-3.4,2.4c-0.9,1-1.6,2.3-2.1,3.7c-0.5,1.4-0.7,3-0.7,4.7c0,1.7,0.2,3.3,0.7,4.7c0.5,1.4,1.2,2.7,2.2,3.7
			c0.9,1,2.1,1.9,3.4,2.4c1.3,0.6,2.8,0.9,4.4,0.9c1.2,0,2.3-0.1,3.3-0.4c0.9-0.3,1.7-0.7,2.4-1.1c0.7-0.4,1.2-0.9,1.6-1.4
			c0.4-0.5,0.8-0.9,1-1.3c0.4-0.6,0.5-1.1,0.5-1.6c0-0.6-0.3-1.1-0.8-1.4c-0.9-0.6-2-0.6-2.6-0.1c-0.2,0.2-0.4,0.4-0.7,0.7
			c-0.2,0.2-0.4,0.5-0.6,0.8c-0.2,0.3-0.5,0.5-0.9,0.8c-0.4,0.3-0.8,0.5-1.4,0.7c-0.5,0.2-1.2,0.3-1.9,0.3c-1.9,0-3.4-0.5-4.4-1.7
			c-0.9-1-1.5-2.5-1.5-4.3h13.7c1.4,0,2.2-0.7,2.2-2c0-1.6-0.2-3-0.7-4.4C253.1,400.9,252.4,399.6,251.6,398.6z M249.4,404.4h-10.9
			c0.1-0.6,0.2-1.1,0.4-1.6c0.3-0.7,0.6-1.3,1.1-1.8c0.5-0.5,1-0.9,1.7-1.2c0.7-0.3,1.4-0.4,2.3-0.4c0.9,0,1.7,0.2,2.3,0.5
			c0.7,0.3,1.2,0.7,1.6,1.2c0.4,0.5,0.8,1.1,1,1.7C249.2,403.4,249.4,403.9,249.4,404.4z"/>
		<path class="st0" d="M269.7,398.1c0-0.8-0.2-1.3-0.6-1.7c-0.4-0.4-1-0.6-1.7-0.6c-1.4,0-2.7,0.3-3.9,1c-0.8,0.4-1.4,1-2,1.7v-0.6
			c0-0.8-0.2-1.3-0.6-1.7c-0.4-0.3-0.9-0.4-1.6-0.4c-0.7,0-1.2,0.2-1.6,0.5c-0.4,0.3-0.6,0.9-0.6,1.7v18.3c0,0.8,0.2,1.4,0.7,1.7
			c0.4,0.3,0.9,0.5,1.6,0.5c0.7,0,1.2-0.2,1.6-0.5c0.5-0.3,0.7-0.9,0.7-1.7v-8.4c0-4.9,1.9-7.3,5.7-7.3c0.8,0,1.4-0.2,1.8-0.6
			C269.6,399.4,269.7,398.9,269.7,398.1z"/>
		<path class="st0" d="M287.5,395.8c-0.7,0-1.2,0.1-1.6,0.4c-0.4,0.3-0.6,0.9-0.6,1.7v0.2c0,0-0.1-0.1-0.1-0.1
			c-0.5-0.5-1-0.9-1.6-1.3c-0.6-0.4-1.3-0.7-2.1-0.9c-0.8-0.2-1.7-0.4-2.6-0.4c-1.5,0-2.9,0.3-4.1,0.9c-1.2,0.6-2.2,1.4-3.1,2.4
			c-0.8,1-1.5,2.2-1.9,3.6c-0.4,1.4-0.6,2.9-0.6,4.5c0,1.7,0.2,3.3,0.6,4.7c0.4,1.4,1.1,2.7,1.9,3.7c0.8,1,1.9,1.8,3.1,2.4
			c1.2,0.6,2.6,0.8,4.1,0.8c1.8,0,3.3-0.4,4.5-1.1c0.7-0.4,1.3-0.9,1.7-1.4v1.5c0,2.1-0.5,3.7-1.5,4.6c-1,0.9-2.3,1.4-3.8,1.4
			c-1.1,0-2.2-0.2-3-0.5c-0.9-0.4-1.7-0.8-2.5-1.3l-0.3-0.2c-0.6-0.4-1.4-0.4-1.9,0c-0.2,0.2-0.4,0.3-0.6,0.5
			c-0.2,0.2-0.3,0.4-0.5,0.7c-0.2,0.3-0.2,0.6-0.2,1c0,0.7,0.3,1.3,0.9,1.7c0.5,0.4,1.1,0.7,1.9,1.1c0.7,0.3,1.6,0.6,2.6,0.8
			c1,0.2,2.1,0.3,3.3,0.3c1.5,0,2.8-0.2,4.1-0.5c1.3-0.4,2.3-1,3.3-1.8c0.9-0.8,1.6-1.9,2.1-3.3c0.5-1.3,0.8-3,0.8-4.8v-19
			c0-0.8-0.2-1.3-0.6-1.7C288.8,396,288.2,395.8,287.5,395.8z M285.3,406.8c0,2.2-0.5,4-1.5,5.4c-1,1.3-2.3,2-4.2,2
			c-1.8,0-3.2-0.6-4.2-1.8c-1-1.3-1.5-3.1-1.5-5.4c0-2.3,0.5-4.1,1.4-5.4c0.9-1.3,2.2-1.9,4.1-1.9c1.9,0,3.3,0.6,4.3,1.8
			C284.8,402.6,285.3,404.4,285.3,406.8z"/>
		<path class="st0" d="M311.3,396.3c-0.5-0.3-1.1-0.5-1.6-0.5c-0.5,0-0.8,0.1-1.1,0.4c-0.3,0.2-0.5,0.6-0.7,1l-6.1,14.2l-5.7-14.1
			c-0.5-1.2-1.3-1.5-1.9-1.5c-0.6,0-1.2,0.2-1.7,0.5c-0.6,0.4-0.9,0.9-0.9,1.6c0,0.3,0.1,0.6,0.2,0.9c0.1,0.2,0.2,0.5,0.3,0.8
			l7.2,17.4l-2.9,6.6c-0.2,0.3-0.3,0.6-0.3,0.8c-0.1,0.2-0.1,0.4-0.1,0.6c0,0.6,0.2,1.2,0.7,1.5c0.4,0.3,0.9,0.5,1.5,0.5
			c0.6,0,1-0.1,1.4-0.4c0.3-0.2,0.5-0.6,0.8-1.1l11.4-26.2c0.1-0.3,0.2-0.5,0.3-0.7c0.1-0.3,0.2-0.6,0.2-0.8
			C312.2,397.1,311.9,396.6,311.3,396.3z"/>
	</g>
	<g>
		<path class="st1" d="M36.2,425.9c-0.8,0-1.4,0.2-1.8,0.6c-0.4,0.3-0.7,0.8-0.9,1.3l-10,23.3l-10.2-23.6c-0.3-0.6-0.6-1-1-1.3
			c-0.4-0.3-0.9-0.4-1.6-0.4c-0.7,0-1.3,0.2-1.7,0.5c-0.5,0.4-0.7,0.9-0.7,1.8v26.7c0,0.6,0.2,1,0.5,1.3c0.3,0.3,0.7,0.4,1.2,0.4
			c0.5,0,0.9-0.1,1.2-0.4c0.3-0.3,0.5-0.7,0.5-1.3v-21.9l9.5,21.7c0.2,0.4,0.4,0.8,0.7,1c0.7,0.6,2,0.6,2.8,0c0.3-0.3,0.6-0.6,0.8-1
			l9.5-22v22.2c0,0.6,0.2,1.1,0.5,1.3c0.3,0.2,0.7,0.4,1.2,0.4c0.5,0,0.9-0.1,1.2-0.4c0.3-0.3,0.5-0.7,0.5-1.3v-26.7
			c0-0.8-0.2-1.4-0.7-1.7C37.5,426,36.9,425.9,36.2,425.9z"/>
		<path class="st1" d="M58.2,435.8c-0.7-0.7-1.6-1.3-2.8-1.7c-1.1-0.4-2.5-0.6-4.1-0.6c-0.5,0-1.1,0-1.7,0.1
			c-0.6,0.1-1.3,0.2-1.9,0.5c-0.7,0.2-1.4,0.5-2,0.9c-0.7,0.4-1.3,0.9-1.9,1.5c-0.4,0.3-0.6,0.6-0.8,0.9c-0.2,0.3-0.3,0.6-0.3,1
			c0,0.5,0.2,0.9,0.6,1.1c0.5,0.4,1.2,0.5,1.9,0.2c0.2-0.1,0.5-0.3,0.8-0.6c0.2-0.2,0.5-0.5,0.8-0.8c0.3-0.3,0.6-0.5,1.1-0.7
			c0.4-0.2,0.9-0.4,1.5-0.6c0.6-0.2,1.2-0.2,2-0.2c1.9,0,3.3,0.4,4.2,1.2c0.8,0.8,1.2,2.1,1.2,3.7v0.9l-2.5,0
			c-2.4,0-4.5,0.2-6.1,0.6c-1.6,0.4-2.9,0.9-3.9,1.6c-1,0.7-1.7,1.5-2.2,2.5c-0.4,0.9-0.6,2-0.6,3c0,1.9,0.6,3.4,1.8,4.6
			c1.2,1.1,3.1,1.7,5.7,1.7c1.1,0,2.1-0.1,3-0.4c0.9-0.2,1.7-0.6,2.4-1c0.7-0.4,1.3-0.9,1.9-1.4c0.2-0.2,0.3-0.3,0.5-0.5v1.1
			c0,0.6,0.1,1,0.2,1.4c0.2,0.5,0.7,0.7,1.5,0.7c1.6,0,1.7-1,1.7-1.4v-13.9c0-1-0.2-2-0.5-2.9C59.4,437.3,58.9,436.5,58.2,435.8z
			 M56.8,445.6v1.3c0,1.2-0.3,2.2-0.7,3c-0.3,0.5-0.7,0.9-1.1,1.4c-0.4,0.4-0.9,0.8-1.5,1.1c-0.6,0.3-1.2,0.6-1.9,0.8
			c-0.6,0.2-1.3,0.3-2,0.3c-1.6,0-2.8-0.3-3.5-0.8c-0.6-0.5-0.9-1.4-0.9-2.6c0-0.6,0.1-1.2,0.4-1.8c0.2-0.5,0.6-0.9,1.2-1.3
			c0.7-0.4,1.6-0.7,2.8-0.9c1.2-0.2,2.8-0.4,4.7-0.4L56.8,445.6z"/>
		<path class="st1" d="M74.9,433.5c-1.4,0-2.5,0.2-3.5,0.7c-1,0.4-1.8,1-2.5,1.6c-0.6,0.5-1.1,1.1-1.4,1.6v-1.8
			c0-0.6-0.2-1.1-0.6-1.3c-0.6-0.4-1.7-0.4-2.3,0c-0.3,0.3-0.5,0.7-0.5,1.3v19.2c0,0.6,0.2,1.1,0.5,1.4c0.6,0.5,1.8,0.5,2.5,0
			c0.3-0.3,0.5-0.7,0.5-1.4v-9.1c0-1,0.1-2.1,0.4-3.1c0.3-1,0.7-2,1.2-2.8c0.6-0.8,1.3-1.5,2.1-2c0.9-0.5,1.9-0.8,3.1-0.8
			c1.8,0,3,0.4,3.7,1.3c0.7,0.9,1,2.3,1,4V455c0,0.5,0.2,1.5,1.8,1.5c1,0,1.7-0.6,1.7-1.5v-13.6c0-2.6-0.7-4.6-2.2-5.9
			C79,434.2,77.2,433.5,74.9,433.5z"/>
		<path class="st1" d="M95.3,436.9c0.9,0,1.7,0.1,2.3,0.4c0.6,0.3,1.2,0.6,1.6,1c0.4,0.4,0.7,0.7,0.9,1.1l0.5,0.9
			c0.3,0.5,0.5,0.8,0.7,0.9c0.6,0.3,1.4,0.2,2-0.3c0.4-0.3,0.6-0.8,0.6-1.3c0-0.3-0.1-0.6-0.2-0.8c-0.1-0.1-0.1-0.3-0.2-0.6
			c-0.2-0.5-0.6-1-1-1.5c-0.4-0.6-1-1.1-1.7-1.5c-0.7-0.5-1.5-0.8-2.4-1.2c-0.9-0.3-2-0.5-3.2-0.5c-1.6,0-3.1,0.3-4.3,0.9
			c-1.3,0.6-2.3,1.4-3.2,2.4c-0.9,1-1.6,2.3-2,3.7c-0.4,1.4-0.7,3-0.7,4.7c0,1.7,0.2,3.3,0.6,4.7c0.4,1.4,1,2.7,1.9,3.7
			c0.8,1,1.9,1.9,3.2,2.4c1.3,0.6,2.8,0.9,4.6,0.9c1.3,0,2.4-0.2,3.4-0.6c1-0.4,1.8-0.8,2.5-1.4c0.7-0.5,1.2-1.1,1.6-1.6
			c0.4-0.5,0.6-0.9,0.8-1.2c0.2-0.4,0.4-0.8,0.4-1.2c0-0.3-0.1-0.8-0.6-1.2c-0.7-0.5-1.6-0.6-2.1-0.1c-0.2,0.2-0.4,0.5-0.7,1
			l-0.6,0.9c-0.2,0.3-0.5,0.6-0.9,0.9c-0.4,0.3-0.9,0.6-1.5,0.8c-0.6,0.2-1.3,0.3-2.2,0.3c-2.2,0-3.8-0.7-4.9-2.2
			c-1.1-1.5-1.7-3.6-1.7-6.3c0-2.6,0.6-4.6,1.6-6.1C91.5,437.6,93.1,436.9,95.3,436.9z"/>
		<path class="st1" d="M116.9,433.5c-1.3,0-2.5,0.2-3.5,0.6c-1,0.4-1.8,0.9-2.5,1.5c-0.6,0.5-1,1-1.4,1.5v-9.6
			c0-0.6-0.2-1.1-0.6-1.3c-0.6-0.4-1.7-0.4-2.3,0c-0.4,0.3-0.6,0.7-0.6,1.3v27.2c0,0.6,0.2,1.1,0.5,1.4c0.6,0.5,1.8,0.5,2.5,0
			c0.3-0.3,0.5-0.7,0.5-1.4v-9.1c0-1,0.1-2.1,0.4-3.1c0.3-1,0.7-2,1.2-2.8c0.6-0.8,1.3-1.5,2.1-2c0.9-0.5,1.9-0.8,3.1-0.8
			c1.8,0,3,0.4,3.7,1.3c0.7,0.9,1,2.3,1,4V455c0,0.5,0.2,1.5,1.8,1.5c1,0,1.7-0.6,1.7-1.5v-13.6c0-2.6-0.7-4.6-2.2-5.9
			C121,434.2,119.2,433.5,116.9,433.5z"/>
		<path class="st1" d="M144.8,436.7c-0.8-1-1.9-1.8-3.1-2.3c-1.2-0.6-2.7-0.9-4.3-0.9c-1.6,0-3,0.3-4.3,0.9
			c-1.3,0.6-2.4,1.4-3.3,2.4c-0.9,1-1.6,2.3-2.1,3.7c-0.5,1.4-0.7,3-0.7,4.7c0,1.7,0.2,3.3,0.7,4.7c0.5,1.4,1.1,2.7,2,3.7
			c0.9,1,2,1.9,3.3,2.4c1.3,0.6,2.8,0.9,4.5,0.9c1.2,0,2.3-0.1,3.2-0.4c0.9-0.3,1.7-0.7,2.4-1.1c0.7-0.4,1.2-0.9,1.7-1.4
			c0.4-0.5,0.8-0.9,1-1.3c0.3-0.5,0.5-0.9,0.5-1.4c0-0.5-0.2-0.9-0.7-1.2c-0.7-0.4-1.5-0.4-2,0c-0.1,0.1-0.3,0.3-0.5,0.6
			c-0.2,0.3-0.5,0.7-0.8,1c-0.3,0.3-0.6,0.7-1,0.9c-0.4,0.3-0.9,0.5-1.5,0.7c-0.6,0.2-1.4,0.3-2.2,0.3c-2.2,0-3.9-0.7-5-2.1
			c-1.1-1.3-1.7-3.2-1.8-5.6h15c0.4,0,0.8-0.1,1.1-0.3c0.2-0.2,0.5-0.5,0.5-1.2c0-1.5-0.2-2.9-0.6-4.2
			C146.3,438.9,145.6,437.7,144.8,436.7z M143.8,443h-13c0.1-0.7,0.3-1.4,0.5-2.1c0.3-0.8,0.7-1.6,1.3-2.2c0.5-0.6,1.2-1.1,2-1.5
			c0.8-0.4,1.7-0.5,2.8-0.5c1.1,0,2,0.2,2.7,0.6c0.8,0.4,1.4,0.9,1.9,1.5c0.5,0.6,0.9,1.3,1.2,2.2
			C143.5,441.5,143.7,442.2,143.8,443z"/>
		<path class="st1" d="M159.2,443.5l-2.8-0.5c-1.5-0.3-2.5-0.7-3-1.3c-0.5-0.6-0.7-1.1-0.7-1.8c0-0.9,0.3-1.7,1-2.3
			c0.7-0.6,1.8-0.9,3.4-0.9c1.3,0,2.3,0.2,3.1,0.5c0.8,0.4,1.6,0.7,2.1,1.1c0.3,0.2,0.5,0.3,0.7,0.4c0.6,0.3,1.5,0.3,2.1-0.3
			c0.3-0.3,0.5-0.7,0.5-1.2c0-0.3-0.1-0.6-0.3-0.9c-0.2-0.2-0.4-0.4-0.6-0.6c-0.2-0.2-0.5-0.4-0.9-0.6c-0.4-0.3-0.9-0.5-1.5-0.7
			c-0.6-0.2-1.3-0.5-2.1-0.6c-0.8-0.2-1.8-0.3-2.8-0.3c-2.4,0-4.4,0.6-5.9,1.7c-1.5,1.2-2.3,2.8-2.3,4.8c0,1,0.2,1.8,0.5,2.5
			c0.3,0.7,0.8,1.3,1.4,1.8c0.6,0.5,1.3,0.9,2.1,1.2c0.7,0.3,1.5,0.5,2.4,0.7l2.2,0.4c1.1,0.2,1.9,0.5,2.5,0.7
			c0.6,0.3,1,0.5,1.2,0.9c0.3,0.3,0.4,0.6,0.5,1c0.1,0.4,0.1,0.8,0.1,1.2c0,1.1-0.4,1.9-1.1,2.5c-0.8,0.6-2,0.9-3.5,0.9
			c-1.4,0-2.5-0.2-3.3-0.5c-0.8-0.3-1.5-0.7-2.1-1.1c-0.4-0.2-0.7-0.4-0.9-0.5c-0.7-0.5-1.5-0.4-2.2,0.3c-0.4,0.4-0.6,0.8-0.6,1.2
			c0,0.6,0.3,1.1,0.9,1.5c0.3,0.2,0.6,0.4,1.1,0.6c0.5,0.3,1,0.5,1.7,0.7c0.7,0.2,1.4,0.4,2.3,0.6c0.9,0.2,1.9,0.2,2.9,0.2
			c2.6,0,4.7-0.6,6.1-1.8c1.5-1.2,2.2-2.9,2.2-5c0-1.9-0.6-3.4-1.7-4.4C162.8,444.7,161.2,444,159.2,443.5z"/>
		<path class="st1" d="M178.2,452.9c-0.2,0-0.4,0.1-0.6,0.2c-0.1,0.1-0.3,0.1-0.4,0.2c-0.2,0.1-0.5,0.2-0.7,0.3
			c-0.2,0.1-0.6,0.1-1,0.1c-1,0-1.7-0.2-2.1-0.6c-0.3-0.3-0.6-1-0.6-2.7v-13h4.2c0.7,0,1-0.3,1.1-0.6c0.2-0.3,0.2-0.6,0.2-1
			c0-0.4-0.1-0.8-0.2-1.1c-0.1-0.3-0.5-0.6-1.1-0.6h-4.2v-5.4c0-0.9-0.6-1.2-1.1-1.2c-0.3,0-0.6,0-0.8,0.1c-0.3,0.1-0.5,0.2-0.8,0.3
			c-0.3,0.2-0.5,0.4-0.6,0.8c-0.1,0.3-0.1,0.6-0.1,1.2v4.2h-2.1c-0.7,0-1,0.3-1.1,0.6c-0.2,0.3-0.2,0.6-0.2,1.1c0,0.4,0.1,0.7,0.2,1
			c0.1,0.3,0.5,0.6,1.1,0.6h2.1v13.8c0,1.8,0.5,3.2,1.4,4.2c0.9,1,2.4,1.5,4.4,1.5c1.2,0,2.3-0.2,3.1-0.5c1.3-0.5,1.5-1.2,1.5-1.8
			c0-0.4-0.1-0.8-0.4-1.2C178.9,453,178.5,452.9,178.2,452.9z"/>
		<path class="st1" d="M196.6,436.7c-0.8-1-1.9-1.8-3.1-2.3c-1.2-0.6-2.7-0.9-4.3-0.9c-1.6,0-3,0.3-4.3,0.9
			c-1.3,0.6-2.4,1.4-3.3,2.4c-0.9,1-1.6,2.3-2.1,3.7c-0.5,1.4-0.7,3-0.7,4.7c0,1.7,0.2,3.3,0.7,4.7c0.5,1.4,1.1,2.7,2,3.7
			c0.9,1,2,1.9,3.3,2.4c1.3,0.6,2.8,0.9,4.5,0.9c1.2,0,2.3-0.1,3.2-0.4c0.9-0.3,1.7-0.7,2.4-1.1c0.7-0.4,1.2-0.9,1.7-1.4
			c0.4-0.5,0.8-0.9,1-1.3c0.3-0.5,0.5-0.9,0.5-1.4c0-0.5-0.2-0.9-0.7-1.2c-0.7-0.4-1.5-0.4-2,0c-0.1,0.1-0.3,0.3-0.5,0.6
			c-0.2,0.3-0.5,0.7-0.8,1c-0.3,0.3-0.6,0.7-1,0.9c-0.4,0.3-0.9,0.5-1.5,0.7c-0.6,0.2-1.4,0.3-2.2,0.3c-2.2,0-3.9-0.7-5-2.1
			c-1.1-1.3-1.7-3.2-1.8-5.6h15c0.4,0,0.8-0.1,1.1-0.3c0.2-0.2,0.5-0.5,0.5-1.2c0-1.5-0.2-2.9-0.6-4.2
			C198.1,438.9,197.5,437.7,196.6,436.7z M182.6,443c0.1-0.7,0.3-1.4,0.5-2.1c0.3-0.8,0.7-1.6,1.3-2.2c0.5-0.6,1.2-1.1,2-1.5
			c0.8-0.4,1.7-0.5,2.8-0.5c1.1,0,2,0.2,2.7,0.6c0.8,0.4,1.4,0.9,1.9,1.5c0.5,0.6,0.9,1.3,1.2,2.2c0.2,0.7,0.4,1.4,0.5,2.1H182.6z"
			/>
		<path class="st1" d="M212.9,434.3c-0.6-0.6-2-0.6-3.5-0.2c-0.7,0.2-1.4,0.5-2.1,0.9c-0.7,0.4-1.3,1-2,1.7
			c-0.2,0.2-0.4,0.5-0.6,0.8v-1.9c0-0.6-0.2-1.1-0.5-1.3c-0.6-0.4-1.7-0.5-2.3,0c-0.3,0.3-0.5,0.7-0.5,1.3v19.2
			c0,0.6,0.2,1.1,0.5,1.4c0.3,0.2,0.7,0.4,1.2,0.4c0.5,0,0.9-0.1,1.2-0.4c0.4-0.3,0.5-0.7,0.5-1.4v-8.8c0-2.8,0.6-4.8,1.8-6.2
			c1.2-1.4,2.8-2.1,4.9-2.1c0.6,0,1-0.2,1.4-0.5c0.3-0.3,0.5-0.8,0.5-1.4C213.5,435.1,213.3,434.6,212.9,434.3z"/>
	</g>
	<g>
		<g>
			<path class="st2" d="M-52.8,390"/>
		</g>
		<g>
			<path class="st1" d="M-86.3,455.5c-1.6,0-2.9-1.3-2.9-2.9V411c0-1,0.5-1.9,1.3-2.4l5.5-3.6c1.3-0.9,3.1-0.5,4,0.8
				c0.9,1.3,0.5,3.1-0.8,4l-4.2,2.8v40.1C-83.5,454.3-84.7,455.5-86.3,455.5z"/>
		</g>
		<g>
			<path class="st1" d="M-71.3,402.8c-1.6,0-2.9-1.3-2.9-2.9v-8.8c0-1.6,1.3-2.9,2.9-2.9c1.6,0,2.9,1.3,2.9,2.9v8.8
				C-68.5,401.5-69.8,402.8-71.3,402.8z"/>
		</g>
		<g>
			<path class="st1" d="M-50.9,456.1c-1.6,0-2.9-1.3-2.9-2.9v-19.2c0-1.6,1.3-2.9,2.9-2.9h14.6c1.6,0,2.9,1.3,2.9,2.9v15.9h10.9
				v-37.7l-30.7-20.2l-16.6,10.5c-1.3,0.8-3.1,0.5-4-0.9c-0.8-1.3-0.5-3.1,0.9-4l18.1-11.5c1-0.6,2.2-0.6,3.1,0l33.6,22.1
				c0.8,0.5,1.3,1.4,1.3,2.4v42.2c0,1.6-1.3,2.9-2.9,2.9h-16.7c-1.6,0-2.9-1.3-2.9-2.9v-15.9h-8.8v16.4
				C-48.1,454.8-49.3,456.1-50.9,456.1z"/>
		</g>
	</g>
</g>
</svg>
