<?xml version="1.0" encoding="utf-8"?>
<!-- Generator: Adobe Illustrator 19.1.0, SVG Export Plug-In . SVG Version: 6.00 Build 0)  -->
<svg version="1.1" id="Layer_1" xmlns="http://www.w3.org/2000/svg" xmlns:xlink="http://www.w3.org/1999/xlink" x="0px" y="0px"
	 viewBox="0 0 409 75.3" style="enable-background:new 0 0 409 75.3;" xml:space="preserve">
<style type="text/css">
	.st0{fill:#6A2A4A;}
	.st1{fill:#EC6550;}
</style>
<g>
	<g>
		<path class="st0" d="M128.9,4.2c-0.9,0-1.5,0.2-2,0.5c-0.4,0.3-0.8,0.8-1,1.4l-9.3,22.2l-9.3-22.2c-0.3-0.6-0.6-1.1-1.1-1.4
			c-0.5-0.3-1.1-0.5-2-0.5c-0.9,0-1.6,0.2-2.1,0.6c-0.6,0.4-0.9,1.1-0.9,2.1v25.8c0,0.8,0.2,1.4,0.7,1.7c0.4,0.3,0.9,0.5,1.6,0.5
			c0.7,0,1.2-0.2,1.6-0.5c0.5-0.3,0.7-0.9,0.7-1.7V13.9l8,18.9c0.2,0.5,0.5,0.9,0.9,1.2c0.4,0.4,1,0.5,1.7,0.5s1.3-0.2,1.7-0.5
			c0.4-0.3,0.7-0.7,0.9-1.2l8-18.9v18.8c0,0.8,0.2,1.4,0.7,1.7c0.4,0.3,1,0.5,1.6,0.5c0.7,0,1.2-0.2,1.6-0.5
			c0.4-0.3,0.7-0.9,0.7-1.7V6.9c0-1-0.3-1.7-0.8-2.1C130.4,4.4,129.8,4.2,128.9,4.2z"/>
		<path class="st0" d="M153.6,12.7c-0.5-0.3-1.1-0.5-1.6-0.5c-0.5,0-0.8,0.1-1.1,0.4c-0.3,0.2-0.5,0.6-0.7,1l-6.1,14.2l-5.7-14.1
			c-0.5-1.2-1.3-1.5-1.9-1.5c-0.6,0-1.2,0.2-1.7,0.5c-0.6,0.4-0.9,0.9-0.9,1.6c0,0.3,0.1,0.6,0.2,0.9c0.1,0.2,0.2,0.5,0.3,0.8
			l7.2,17.4l-2.9,6.6c-0.2,0.3-0.3,0.6-0.3,0.8c0,0.2-0.1,0.4-0.1,0.6c0,0.6,0.2,1.2,0.7,1.5c0.4,0.3,0.9,0.5,1.5,0.5
			c0.6,0,1-0.1,1.4-0.4c0.3-0.2,0.5-0.6,0.8-1.1L154,15.8c0.1-0.3,0.2-0.5,0.3-0.7c0.1-0.3,0.2-0.6,0.2-0.8
			C154.5,13.5,154.2,13,153.6,12.7z"/>
		<path class="st0" d="M186.3,4.7c-0.4-0.3-1-0.5-1.7-0.5c-0.7,0-1.3,0.2-1.7,0.5c-0.5,0.4-0.7,0.9-0.7,1.8v10h-14.7v-10
			c0-0.8-0.2-1.4-0.7-1.8c-0.4-0.3-1-0.5-1.7-0.5c-0.7,0-1.3,0.2-1.7,0.5c-0.5,0.4-0.7,0.9-0.7,1.8v26.1c0,0.8,0.2,1.4,0.7,1.8
			c0.4,0.3,1,0.5,1.7,0.5c0.7,0,1.3-0.2,1.7-0.5c0.5-0.4,0.7-0.9,0.7-1.8V20.7h14.7v11.8c0,0.8,0.2,1.4,0.7,1.7
			c0.4,0.3,1,0.5,1.7,0.5c0.7,0,1.3-0.2,1.7-0.5c0.5-0.4,0.7-0.9,0.7-1.8V6.4C187,5.6,186.8,5,186.3,4.7z"/>
		<path class="st0" d="M208.9,14.9c-1-1-2.1-1.8-3.4-2.3c-1.3-0.5-2.8-0.8-4.4-0.8c-1.6,0-3.1,0.3-4.4,0.8c-1.3,0.5-2.5,1.3-3.4,2.3
			c-1,1-1.7,2.3-2.2,3.7c-0.5,1.4-0.8,3.1-0.8,4.9s0.3,3.5,0.8,4.9c0.5,1.5,1.2,2.7,2.2,3.7c1,1,2.1,1.8,3.4,2.3
			c1.3,0.5,2.8,0.8,4.4,0.8c1.6,0,3.1-0.3,4.4-0.8c1.3-0.5,2.5-1.3,3.4-2.3c1-1,1.7-2.3,2.2-3.7c0.5-1.4,0.8-3.1,0.8-4.9
			s-0.3-3.4-0.8-4.9C210.6,17.2,209.9,15.9,208.9,14.9z M207.1,23.5c0,2.4-0.5,4.3-1.6,5.7c-1,1.3-2.5,2-4.4,2c-1.9,0-3.4-0.6-4.4-2
			c-1-1.3-1.6-3.2-1.6-5.7c0-2.4,0.5-4.3,1.6-5.6c1-1.3,2.5-1.9,4.4-1.9c1.9,0,3.4,0.6,4.4,1.9C206.5,19.2,207.1,21.1,207.1,23.5z"
			/>
		<path class="st0" d="M239,11.8c-1.8,0-3.3,0.4-4.6,1.1c-1,0.6-1.8,1.3-2.4,2.1c-0.5-0.9-1.2-1.6-2.1-2.1c-1.2-0.7-2.6-1.1-4.4-1.1
			c-1.3,0-2.5,0.2-3.4,0.6c-0.9,0.4-1.6,0.9-2.2,1.4c-0.2,0.2-0.4,0.4-0.5,0.6v0c0-0.8-0.2-1.3-0.6-1.7c-0.4-0.3-0.9-0.4-1.6-0.4
			c-0.7,0-1.2,0.1-1.6,0.4c-0.4,0.3-0.6,0.9-0.6,1.7v18.3c0,0.8,0.2,1.4,0.7,1.7c0.4,0.3,0.9,0.5,1.6,0.5c0.7,0,1.2-0.2,1.6-0.5
			c0.5-0.3,0.7-0.9,0.7-1.7v-8.9c0-0.9,0.1-1.9,0.3-2.8c0.2-0.9,0.5-1.7,0.8-2.5c0.4-0.7,0.9-1.3,1.5-1.7c0.6-0.4,1.4-0.6,2.4-0.6
			c0.8,0,1.5,0.1,2,0.3c0.5,0.2,0.9,0.5,1.1,0.8c0.3,0.4,0.5,0.8,0.6,1.4c0.1,0.6,0.2,1.3,0.2,2v12.2c0,0.7,0.3,2,2.4,2
			c1.4,0,2.2-0.7,2.2-2v-9.1c0-0.9,0.1-1.9,0.3-2.8c0.2-0.9,0.5-1.7,0.8-2.5c0.4-0.7,0.9-1.3,1.5-1.7c0.6-0.4,1.4-0.7,2.4-0.7
			c0.8,0,1.5,0.1,2,0.3c0.5,0.2,0.9,0.5,1.1,0.8c0.3,0.4,0.5,0.8,0.6,1.4c0.1,0.6,0.2,1.3,0.2,2v12.2c0,0.7,0.3,2,2.4,2
			c1.4,0,2.2-0.7,2.2-2V19.5c0-2.6-0.7-4.6-2.1-5.8C243.2,12.4,241.3,11.8,239,11.8z"/>
		<path class="st0" d="M267.8,15.1c-0.9-1-1.9-1.8-3.2-2.4c-1.3-0.6-2.7-0.9-4.4-0.9c-1.6,0-3.1,0.3-4.4,0.9
			c-1.3,0.6-2.4,1.4-3.4,2.4c-0.9,1-1.6,2.3-2.1,3.7c-0.5,1.4-0.7,3-0.7,4.7c0,1.7,0.2,3.3,0.7,4.7c0.5,1.4,1.2,2.7,2.2,3.7
			c0.9,1,2.1,1.9,3.4,2.4c1.3,0.6,2.8,0.9,4.4,0.9c1.2,0,2.4-0.1,3.3-0.4c0.9-0.3,1.7-0.7,2.4-1.1c0.7-0.4,1.2-0.9,1.6-1.4
			c0.4-0.5,0.8-0.9,1-1.3c0.4-0.6,0.5-1.1,0.5-1.6c0-0.6-0.3-1.1-0.8-1.4c-0.9-0.6-2-0.6-2.6-0.1c-0.2,0.2-0.4,0.4-0.7,0.7
			c-0.2,0.2-0.4,0.5-0.6,0.8c-0.2,0.3-0.5,0.5-0.9,0.8c-0.4,0.3-0.8,0.5-1.4,0.7c-0.5,0.2-1.2,0.3-1.9,0.3c-1.9,0-3.4-0.5-4.4-1.7
			c-0.9-1-1.5-2.5-1.5-4.3h13.7c1.4,0,2.2-0.7,2.2-2c0-1.6-0.2-3-0.7-4.4C269.3,17.3,268.7,16.1,267.8,15.1z M254.8,20.9
			c0.1-0.5,0.2-1.1,0.4-1.6c0.3-0.7,0.6-1.3,1.1-1.8c0.5-0.5,1-0.9,1.7-1.2c0.7-0.3,1.4-0.4,2.3-0.4c0.9,0,1.7,0.2,2.3,0.5
			c0.7,0.3,1.2,0.7,1.6,1.2c0.4,0.5,0.8,1.1,1,1.7c0.2,0.5,0.3,1,0.4,1.6H254.8z"/>
		<path class="st0" d="M299.6,8.8c0.7,0,1.2-0.2,1.6-0.6c0.3-0.4,0.5-0.9,0.5-1.6c0-0.7-0.2-1.2-0.5-1.5c-0.3-0.4-0.9-0.6-1.6-0.6
			h-16.5c-0.7,0-1.3,0.2-1.7,0.5c-0.5,0.4-0.7,1-0.7,1.8v25.4c0,0.8,0.2,1.4,0.7,1.8c0.4,0.4,1,0.5,1.7,0.5h16.5
			c0.7,0,1.3-0.2,1.6-0.6c0.3-0.4,0.5-0.9,0.5-1.6c0-0.7-0.2-1.2-0.5-1.5c-0.3-0.4-0.9-0.6-1.6-0.6h-14.3v-8.9h13.5
			c0.7,0,1.3-0.2,1.6-0.6c0.3-0.4,0.5-0.9,0.5-1.6c0-0.7-0.2-1.2-0.5-1.5c-0.3-0.4-0.9-0.6-1.6-0.6h-13.5V8.8H299.6z"/>
		<path class="st0" d="M315.5,11.8c-1.4,0-2.7,0.2-3.6,0.7c-0.9,0.4-1.7,0.9-2.3,1.5c-0.3,0.2-0.5,0.5-0.7,0.7v-0.3
			c0-0.8-0.2-1.3-0.6-1.7c-0.4-0.3-0.9-0.4-1.6-0.4c-0.7,0-1.2,0.1-1.6,0.4c-0.4,0.3-0.6,0.9-0.6,1.7v18.3c0,0.8,0.2,1.4,0.7,1.7
			c0.4,0.3,0.9,0.5,1.6,0.5c0.7,0,1.2-0.2,1.6-0.5c0.5-0.3,0.7-0.9,0.7-1.7v-8.9c0-0.9,0.1-1.8,0.3-2.7c0.2-0.9,0.6-1.7,1-2.5
			c0.4-0.7,1-1.3,1.7-1.7c0.7-0.4,1.5-0.7,2.5-0.7c1.6,0,2.7,0.4,3.3,1.1c0.6,0.8,0.9,1.9,0.9,3.4v12.2c0,0.7,0.3,2,2.4,2
			c1.4,0,2.2-0.7,2.2-2v-13c0-2.7-0.7-4.7-2.2-6C319.8,12.5,317.8,11.8,315.5,11.8z"/>
		<path class="st0" d="M344.6,15.1c-0.9-1-1.9-1.8-3.2-2.4c-1.3-0.6-2.7-0.9-4.4-0.9c-1.6,0-3.1,0.3-4.4,0.9
			c-1.3,0.6-2.4,1.4-3.4,2.4c-0.9,1-1.6,2.3-2.1,3.7c-0.5,1.4-0.7,3-0.7,4.7c0,1.7,0.2,3.3,0.7,4.7c0.5,1.4,1.2,2.7,2.2,3.7
			c0.9,1,2.1,1.9,3.4,2.4c1.3,0.6,2.8,0.9,4.4,0.9c1.2,0,2.3-0.1,3.3-0.4c0.9-0.3,1.7-0.7,2.4-1.1c0.7-0.4,1.2-0.9,1.6-1.4
			c0.4-0.5,0.8-0.9,1-1.3c0.4-0.6,0.5-1.1,0.5-1.6c0-0.6-0.3-1.1-0.8-1.4c-0.9-0.6-2-0.6-2.6-0.1c-0.2,0.2-0.4,0.4-0.7,0.7
			c-0.2,0.2-0.4,0.5-0.6,0.8c-0.2,0.3-0.5,0.5-0.9,0.8c-0.4,0.3-0.8,0.5-1.4,0.7c-0.5,0.2-1.2,0.3-1.9,0.3c-1.9,0-3.4-0.5-4.4-1.7
			c-0.9-1-1.5-2.5-1.5-4.3H345c1.4,0,2.2-0.7,2.2-2c0-1.6-0.2-3-0.7-4.4C346.1,17.3,345.5,16.1,344.6,15.1z M342.5,20.9h-10.9
			c0.1-0.6,0.2-1.1,0.4-1.6c0.3-0.7,0.6-1.3,1.1-1.8c0.5-0.5,1-0.9,1.7-1.2c0.7-0.3,1.4-0.4,2.3-0.4c0.9,0,1.7,0.2,2.3,0.5
			c0.7,0.3,1.2,0.7,1.6,1.2c0.4,0.5,0.8,1.1,1,1.7C342.3,19.8,342.4,20.3,342.5,20.9z"/>
		<path class="st0" d="M362.8,14.5c0-0.8-0.2-1.3-0.6-1.7c-0.4-0.4-1-0.6-1.7-0.6c-1.4,0-2.7,0.3-3.9,1c-0.8,0.4-1.4,1-2,1.7v-0.6
			c0-0.8-0.2-1.3-0.6-1.7c-0.4-0.3-0.9-0.4-1.6-0.4c-0.7,0-1.2,0.2-1.6,0.5c-0.4,0.3-0.6,0.9-0.6,1.7v18.3c0,0.8,0.2,1.4,0.7,1.7
			c0.4,0.3,0.9,0.5,1.6,0.5c0.7,0,1.2-0.2,1.6-0.5c0.5-0.3,0.7-0.9,0.7-1.7v-8.4c0-4.9,1.9-7.3,5.7-7.3c0.8,0,1.4-0.2,1.8-0.6
			C362.6,15.9,362.8,15.3,362.8,14.5z"/>
		<path class="st0" d="M380.6,12.2c-0.7,0-1.2,0.1-1.6,0.4c-0.4,0.3-0.6,0.9-0.6,1.7v0.2c0,0-0.1-0.1-0.1-0.1
			c-0.5-0.5-1-0.9-1.6-1.3c-0.6-0.4-1.3-0.7-2.1-0.9c-0.8-0.2-1.7-0.4-2.6-0.4c-1.5,0-2.9,0.3-4.1,0.9c-1.2,0.6-2.2,1.4-3.1,2.4
			c-0.8,1-1.5,2.2-1.9,3.6c-0.4,1.4-0.6,2.9-0.6,4.5c0,1.7,0.2,3.3,0.6,4.7c0.4,1.4,1.1,2.7,1.9,3.7c0.8,1,1.9,1.8,3.1,2.4
			c1.2,0.6,2.6,0.8,4.1,0.8c1.8,0,3.3-0.4,4.5-1.1c0.7-0.4,1.3-0.9,1.7-1.4v1.5c0,2.1-0.5,3.7-1.5,4.6c-1,0.9-2.3,1.4-3.8,1.4
			c-1.1,0-2.2-0.2-3-0.5c-0.9-0.4-1.7-0.8-2.5-1.3l-0.3-0.2c-0.6-0.4-1.4-0.4-1.9,0c-0.2,0.2-0.4,0.3-0.6,0.5
			c-0.2,0.2-0.3,0.4-0.5,0.7c-0.2,0.3-0.2,0.6-0.2,1c0,0.7,0.3,1.3,0.9,1.7c0.5,0.4,1.1,0.7,1.9,1.1c0.7,0.3,1.6,0.6,2.6,0.8
			c1,0.2,2.1,0.3,3.3,0.3c1.5,0,2.8-0.2,4.1-0.5c1.3-0.4,2.3-1,3.3-1.8c0.9-0.8,1.6-1.9,2.1-3.3c0.5-1.3,0.8-3,0.8-4.8v-19
			c0-0.8-0.2-1.3-0.6-1.7C381.8,12.4,381.3,12.2,380.6,12.2z M378.3,23.2c0,2.2-0.5,4-1.5,5.4c-1,1.3-2.3,2-4.2,2
			c-1.8,0-3.2-0.6-4.2-1.8c-1-1.3-1.5-3.1-1.5-5.4c0-2.3,0.5-4.1,1.4-5.4c0.9-1.3,2.2-1.9,4.1-1.9c1.9,0,3.3,0.6,4.3,1.8
			C377.8,19,378.3,20.9,378.3,23.2z"/>
		<path class="st0" d="M404.4,12.7c-0.5-0.3-1.1-0.5-1.6-0.5c-0.5,0-0.8,0.1-1.1,0.4c-0.3,0.2-0.5,0.6-0.7,1l-6.1,14.2l-5.7-14.1
			c-0.5-1.2-1.3-1.5-1.9-1.5c-0.6,0-1.2,0.2-1.7,0.5c-0.6,0.4-0.9,0.9-0.9,1.6c0,0.3,0.1,0.6,0.2,0.9c0.1,0.2,0.2,0.5,0.3,0.8
			l7.2,17.4l-2.9,6.6c-0.2,0.3-0.3,0.6-0.3,0.8c-0.1,0.2-0.1,0.4-0.1,0.6c0,0.6,0.2,1.2,0.7,1.5c0.4,0.3,0.9,0.5,1.5,0.5
			c0.6,0,1-0.1,1.4-0.4c0.3-0.2,0.5-0.6,0.8-1.1l11.4-26.2c0.1-0.3,0.2-0.5,0.3-0.7c0.1-0.3,0.2-0.6,0.2-0.8
			C405.3,13.5,405,13,404.4,12.7z"/>
	</g>
	<g>
		<path class="st1" d="M129.2,42.3c-0.8,0-1.4,0.2-1.8,0.6c-0.4,0.3-0.7,0.8-0.9,1.3l-10,23.3L106.2,44c-0.3-0.6-0.6-1-1-1.3
			c-0.4-0.3-0.9-0.4-1.6-0.4c-0.7,0-1.3,0.2-1.7,0.5c-0.5,0.4-0.7,0.9-0.7,1.8v26.7c0,0.6,0.2,1,0.5,1.3c0.3,0.3,0.7,0.4,1.2,0.4
			c0.5,0,0.9-0.1,1.2-0.4c0.3-0.3,0.5-0.7,0.5-1.3V49.3l9.6,21.7c0.2,0.4,0.4,0.8,0.7,1c0.7,0.6,2,0.6,2.8,0c0.3-0.3,0.6-0.6,0.8-1
			l9.5-22v22.2c0,0.6,0.2,1.1,0.5,1.3c0.3,0.2,0.7,0.4,1.2,0.4c0.5,0,0.9-0.1,1.2-0.4c0.3-0.3,0.5-0.7,0.5-1.3V44.5
			c0-0.8-0.2-1.4-0.7-1.8C130.4,42.5,129.8,42.3,129.2,42.3z"/>
		<path class="st1" d="M151.2,52.2c-0.7-0.7-1.6-1.3-2.8-1.7c-1.1-0.4-2.5-0.6-4.1-0.6c-0.5,0-1.1,0-1.7,0.1
			c-0.6,0.1-1.3,0.2-1.9,0.5c-0.7,0.2-1.4,0.5-2,0.9c-0.7,0.4-1.3,0.9-1.9,1.5c-0.4,0.3-0.6,0.6-0.8,0.9c-0.2,0.3-0.3,0.6-0.3,1
			c0,0.5,0.2,0.9,0.6,1.1c0.5,0.4,1.2,0.5,1.9,0.2c0.2-0.1,0.5-0.3,0.8-0.6c0.2-0.2,0.5-0.5,0.8-0.8c0.3-0.3,0.6-0.5,1.1-0.7
			c0.4-0.2,0.9-0.4,1.5-0.6c0.6-0.2,1.2-0.2,2-0.2c1.9,0,3.3,0.4,4.2,1.2c0.8,0.8,1.2,2.1,1.2,3.7v0.9l-2.5,0
			c-2.4,0-4.5,0.2-6.1,0.6c-1.6,0.4-3,0.9-3.9,1.6c-1,0.7-1.7,1.5-2.2,2.5c-0.4,0.9-0.6,2-0.6,3.1c0,1.9,0.6,3.4,1.8,4.6
			c1.2,1.1,3.1,1.7,5.7,1.7c1.1,0,2.1-0.1,3-0.4c0.9-0.2,1.7-0.6,2.4-1c0.7-0.4,1.3-0.9,1.9-1.4c0.2-0.2,0.3-0.3,0.5-0.5v1.1
			c0,0.6,0.1,1,0.2,1.4c0.2,0.5,0.7,0.7,1.5,0.7c1.6,0,1.7-1,1.7-1.4V57.6c0-1-0.2-2-0.5-2.9C152.4,53.8,151.9,52.9,151.2,52.2z
			 M149.8,62v1.3c0,1.2-0.3,2.2-0.7,3c-0.3,0.5-0.7,0.9-1.1,1.4c-0.4,0.4-0.9,0.8-1.5,1.1c-0.6,0.3-1.2,0.6-1.9,0.8
			c-0.6,0.2-1.3,0.3-2,0.3c-1.6,0-2.8-0.3-3.5-0.8c-0.6-0.5-0.9-1.4-0.9-2.6c0-0.6,0.1-1.2,0.4-1.8c0.2-0.5,0.6-0.9,1.2-1.3
			c0.7-0.4,1.6-0.7,2.8-0.9c1.2-0.2,2.8-0.4,4.7-0.4L149.8,62z"/>
		<path class="st1" d="M167.8,50c-1.4,0-2.5,0.2-3.5,0.7c-1,0.4-1.8,1-2.5,1.6c-0.6,0.5-1.1,1.1-1.4,1.6V52c0-0.6-0.2-1.1-0.6-1.3
			c-0.6-0.4-1.7-0.4-2.3,0c-0.3,0.3-0.5,0.7-0.5,1.3v19.2c0,0.6,0.2,1.1,0.5,1.4c0.6,0.5,1.8,0.5,2.5,0c0.3-0.3,0.5-0.7,0.5-1.4V62
			c0-1,0.1-2.1,0.4-3.1c0.3-1,0.7-2,1.2-2.8c0.6-0.8,1.3-1.5,2.2-2c0.9-0.5,1.9-0.8,3.1-0.8c1.8,0,3,0.4,3.7,1.3c0.7,0.9,1,2.3,1,4
			v12.7c0,0.5,0.2,1.5,1.8,1.5c1,0,1.7-0.6,1.7-1.5V57.8c0-2.6-0.7-4.6-2.2-5.9C172,50.6,170.1,50,167.8,50z"/>
		<path class="st1" d="M188.3,53.3c0.9,0,1.7,0.1,2.3,0.4c0.6,0.3,1.2,0.6,1.6,1c0.4,0.4,0.7,0.7,0.9,1.1l0.5,0.9
			c0.3,0.5,0.5,0.8,0.7,0.9c0.6,0.3,1.4,0.2,2-0.3c0.4-0.3,0.6-0.8,0.6-1.3c0-0.3-0.1-0.6-0.2-0.8c-0.1-0.1-0.1-0.3-0.2-0.6
			c-0.2-0.5-0.6-1-1-1.5c-0.4-0.6-1-1.1-1.7-1.5c-0.7-0.5-1.5-0.8-2.4-1.2c-0.9-0.3-2-0.5-3.2-0.5c-1.6,0-3.1,0.3-4.4,0.9
			c-1.3,0.6-2.3,1.4-3.2,2.4c-0.9,1-1.6,2.3-2,3.7c-0.4,1.4-0.7,3-0.7,4.7c0,1.7,0.2,3.3,0.6,4.7c0.4,1.4,1,2.7,1.9,3.7
			c0.8,1,1.9,1.9,3.2,2.4c1.3,0.6,2.8,0.9,4.6,0.9c1.3,0,2.4-0.2,3.4-0.6c1-0.4,1.8-0.8,2.5-1.4c0.7-0.5,1.2-1.1,1.6-1.6
			c0.4-0.5,0.6-0.9,0.8-1.2c0.2-0.4,0.4-0.8,0.4-1.2c0-0.3-0.1-0.8-0.6-1.2c-0.7-0.5-1.6-0.6-2.1-0.1c-0.2,0.2-0.4,0.5-0.7,1
			l-0.6,0.9c-0.2,0.3-0.5,0.6-0.9,0.9c-0.4,0.3-0.9,0.6-1.5,0.8c-0.6,0.2-1.3,0.3-2.2,0.3c-2.2,0-3.8-0.7-4.9-2.2
			c-1.1-1.5-1.7-3.6-1.7-6.3c0-2.6,0.6-4.6,1.7-6.1C184.4,54,186,53.3,188.3,53.3z"/>
		<path class="st1" d="M209.9,50c-1.3,0-2.5,0.2-3.5,0.6c-1,0.4-1.8,0.9-2.5,1.5c-0.6,0.5-1,1-1.4,1.5V44c0-0.6-0.2-1.1-0.6-1.3
			c-0.6-0.4-1.7-0.4-2.3,0c-0.4,0.3-0.6,0.7-0.6,1.3v27.2c0,0.6,0.2,1.1,0.5,1.4c0.6,0.5,1.8,0.5,2.5,0c0.3-0.3,0.5-0.7,0.5-1.4V62
			c0-1,0.1-2.1,0.4-3.1c0.3-1,0.7-2,1.2-2.8c0.6-0.8,1.3-1.5,2.2-2c0.9-0.5,1.9-0.8,3.1-0.8c1.8,0,3,0.4,3.7,1.3c0.7,0.9,1,2.3,1,4
			v12.7c0,0.5,0.2,1.5,1.8,1.5c1,0,1.7-0.6,1.7-1.5V57.8c0-2.7-0.7-4.6-2.2-5.9C214,50.6,212.1,50,209.9,50z"/>
		<path class="st1" d="M237.8,53.2c-0.8-1-1.9-1.8-3.1-2.3c-1.2-0.6-2.7-0.9-4.3-0.9c-1.6,0-3,0.3-4.3,0.9c-1.3,0.6-2.4,1.4-3.3,2.4
			c-0.9,1-1.6,2.3-2.1,3.7c-0.5,1.4-0.7,3-0.7,4.7c0,1.7,0.2,3.3,0.7,4.7c0.5,1.4,1.1,2.7,2,3.7c0.9,1,2,1.9,3.3,2.4
			c1.3,0.6,2.8,0.9,4.5,0.9c1.2,0,2.3-0.1,3.2-0.4c0.9-0.3,1.7-0.7,2.4-1.1c0.7-0.4,1.2-0.9,1.7-1.4c0.4-0.5,0.8-0.9,1-1.3
			c0.3-0.5,0.5-0.9,0.5-1.4c0-0.5-0.2-0.9-0.7-1.2c-0.7-0.4-1.5-0.4-2,0c-0.1,0.1-0.3,0.3-0.5,0.6c-0.2,0.3-0.5,0.7-0.8,1
			c-0.3,0.3-0.6,0.7-1,0.9c-0.4,0.3-0.9,0.5-1.5,0.7c-0.6,0.2-1.4,0.3-2.2,0.3c-2.2,0-3.9-0.7-5-2.1c-1.1-1.3-1.7-3.2-1.8-5.6h15
			c0.4,0,0.8-0.1,1.1-0.3c0.2-0.2,0.5-0.5,0.5-1.2c0-1.5-0.2-2.9-0.6-4.2C239.3,55.3,238.6,54.2,237.8,53.2z M236.8,59.4h-13
			c0.1-0.7,0.3-1.4,0.5-2.1c0.3-0.8,0.7-1.6,1.3-2.2c0.5-0.6,1.2-1.1,2-1.5c0.8-0.4,1.7-0.5,2.8-0.5c1.1,0,2,0.2,2.7,0.6
			c0.8,0.4,1.4,0.9,1.9,1.5c0.5,0.6,0.9,1.3,1.2,2.2C236.5,58,236.7,58.7,236.8,59.4z"/>
		<path class="st1" d="M252.2,60l-2.8-0.5c-1.5-0.3-2.5-0.7-3-1.3c-0.5-0.6-0.7-1.1-0.7-1.8c0-0.9,0.3-1.7,1-2.3
			c0.7-0.6,1.8-0.9,3.4-0.9c1.3,0,2.3,0.2,3.1,0.5c0.8,0.4,1.6,0.7,2.2,1.1c0.3,0.2,0.5,0.3,0.7,0.4c0.6,0.3,1.5,0.3,2.1-0.3
			c0.3-0.3,0.5-0.7,0.5-1.2c0-0.3-0.1-0.6-0.3-0.9c-0.2-0.2-0.4-0.4-0.6-0.6c-0.2-0.2-0.5-0.4-0.9-0.6c-0.4-0.3-0.9-0.5-1.5-0.7
			c-0.6-0.2-1.3-0.5-2.1-0.6c-0.8-0.2-1.8-0.3-2.8-0.3c-2.4,0-4.4,0.6-5.9,1.7c-1.5,1.2-2.3,2.8-2.3,4.8c0,1,0.2,1.8,0.5,2.5
			c0.4,0.7,0.8,1.3,1.4,1.8c0.6,0.5,1.3,0.9,2.1,1.2c0.7,0.3,1.5,0.5,2.4,0.7l2.2,0.4c1.1,0.2,1.9,0.5,2.5,0.7
			c0.6,0.3,1,0.5,1.2,0.9c0.3,0.3,0.4,0.6,0.5,1c0.1,0.4,0.1,0.8,0.1,1.2c0,1.1-0.4,1.9-1.1,2.5c-0.8,0.6-2,0.9-3.5,0.9
			c-1.4,0-2.5-0.2-3.3-0.5c-0.8-0.3-1.5-0.7-2.1-1.1c-0.4-0.2-0.7-0.4-0.9-0.5c-0.7-0.5-1.5-0.4-2.2,0.3c-0.4,0.4-0.6,0.8-0.6,1.2
			c0,0.6,0.3,1.1,0.9,1.5c0.3,0.2,0.6,0.4,1.1,0.6c0.5,0.3,1,0.5,1.7,0.7c0.7,0.2,1.4,0.4,2.3,0.6c0.9,0.2,1.9,0.2,2.9,0.2
			c2.6,0,4.7-0.6,6.1-1.8c1.5-1.2,2.2-2.9,2.2-5c0-1.9-0.6-3.4-1.7-4.4C255.8,61.1,254.2,60.4,252.2,60z"/>
		<path class="st1" d="M271.2,69.3c-0.2,0-0.4,0.1-0.6,0.2c-0.1,0.1-0.3,0.1-0.4,0.2c-0.2,0.1-0.5,0.2-0.7,0.3
			c-0.2,0.1-0.6,0.1-1,0.1c-1,0-1.7-0.2-2.1-0.6c-0.3-0.3-0.6-1-0.6-2.7v-13h4.2c0.7,0,1-0.3,1.1-0.6c0.2-0.3,0.2-0.6,0.2-1
			c0-0.4-0.1-0.8-0.2-1.1c-0.1-0.3-0.5-0.6-1.1-0.6h-4.2v-5.4c0-0.9-0.6-1.2-1.1-1.2c-0.3,0-0.6,0-0.8,0.1c-0.3,0.1-0.5,0.2-0.8,0.3
			c-0.3,0.2-0.5,0.4-0.6,0.8c-0.1,0.3-0.1,0.6-0.1,1.2v4.2h-2.1c-0.7,0-1,0.3-1.1,0.6c-0.2,0.3-0.2,0.6-0.2,1.1c0,0.4,0.1,0.7,0.2,1
			c0.1,0.3,0.5,0.6,1.1,0.6h2.1v13.8c0,1.8,0.5,3.2,1.4,4.2c0.9,1,2.4,1.5,4.4,1.5c1.2,0,2.3-0.2,3.1-0.5c1.3-0.5,1.5-1.2,1.5-1.8
			c0-0.4-0.1-0.8-0.4-1.2C271.9,69.4,271.5,69.3,271.2,69.3z"/>
		<path class="st1" d="M289.6,53.2c-0.8-1-1.9-1.8-3.1-2.3c-1.2-0.6-2.7-0.9-4.3-0.9c-1.6,0-3,0.3-4.3,0.9c-1.3,0.6-2.4,1.4-3.3,2.4
			c-0.9,1-1.6,2.3-2.1,3.7c-0.5,1.4-0.7,3-0.7,4.7c0,1.7,0.2,3.3,0.7,4.7c0.5,1.4,1.1,2.7,2,3.7c0.9,1,2,1.9,3.3,2.4
			c1.3,0.6,2.8,0.9,4.5,0.9c1.2,0,2.3-0.1,3.2-0.4c0.9-0.3,1.7-0.7,2.4-1.1c0.7-0.4,1.2-0.9,1.7-1.4c0.4-0.5,0.8-0.9,1-1.3
			c0.3-0.5,0.5-0.9,0.5-1.4c0-0.5-0.2-0.9-0.7-1.2c-0.7-0.4-1.5-0.4-2,0c-0.1,0.1-0.3,0.3-0.5,0.6c-0.2,0.3-0.5,0.7-0.8,1
			c-0.3,0.3-0.6,0.7-1,0.9c-0.4,0.3-0.9,0.5-1.5,0.7c-0.6,0.2-1.4,0.3-2.2,0.3c-2.2,0-3.9-0.7-5-2.1c-1.1-1.3-1.7-3.2-1.8-5.6h15
			c0.4,0,0.8-0.1,1.1-0.3c0.2-0.2,0.5-0.5,0.5-1.2c0-1.5-0.2-2.9-0.6-4.2C291.1,55.3,290.5,54.2,289.6,53.2z M275.6,59.4
			c0.1-0.7,0.3-1.4,0.5-2.1c0.3-0.8,0.7-1.6,1.3-2.2c0.5-0.6,1.2-1.1,2-1.5c0.8-0.4,1.7-0.5,2.8-0.5c1.1,0,2,0.2,2.7,0.6
			c0.8,0.4,1.4,0.9,1.9,1.5c0.5,0.6,0.9,1.3,1.2,2.2c0.2,0.7,0.4,1.4,0.5,2.1H275.6z"/>
		<path class="st1" d="M305.9,50.7c-0.6-0.6-2-0.6-3.5-0.2c-0.7,0.2-1.4,0.5-2.1,0.9c-0.7,0.4-1.3,1-2,1.7c-0.2,0.2-0.4,0.5-0.6,0.8
			V52c0-0.6-0.2-1.1-0.5-1.3c-0.6-0.4-1.7-0.5-2.3,0c-0.3,0.3-0.5,0.7-0.5,1.3v19.2c0,0.6,0.2,1.1,0.5,1.4c0.3,0.2,0.7,0.4,1.2,0.4
			c0.5,0,0.9-0.1,1.2-0.4c0.4-0.3,0.5-0.7,0.5-1.4v-8.9c0-2.8,0.6-4.9,1.8-6.2c1.2-1.4,2.8-2.1,4.9-2.1c0.6,0,1-0.2,1.4-0.5
			c0.3-0.3,0.5-0.8,0.5-1.4C306.5,51.5,306.3,51,305.9,50.7z"/>
	</g>
	<g>
		<g>
			<path class="st1" d="M40.1,6.4"/>
		</g>
		<g>
			<path class="st1" d="M6.5,72c-1.6,0-2.9-1.3-2.9-2.9V27.4c0-1,0.5-1.9,1.3-2.4l5.5-3.6c1.3-0.9,3.1-0.5,4,0.8
				c0.9,1.3,0.5,3.1-0.8,4L9.4,29v40.1C9.4,70.7,8.1,72,6.5,72z"/>
		</g>
		<g>
			<path class="st1" d="M21.5,19.2c-1.6,0-2.9-1.3-2.9-2.9V7.5c0-1.6,1.3-2.9,2.9-2.9s2.9,1.3,2.9,2.9v8.8
				C24.4,17.9,23.1,19.2,21.5,19.2z"/>
		</g>
		<g>
			<path class="st1" d="M42,72.5c-1.6,0-2.9-1.3-2.9-2.9V50.4c0-1.6,1.3-2.9,2.9-2.9h14.6c1.6,0,2.9,1.3,2.9,2.9v15.9h10.9V28.5
				L39.6,8.3L23.1,18.8c-1.3,0.8-3.1,0.5-4-0.9c-0.9-1.3-0.5-3.1,0.9-4L38.1,2.4c1-0.6,2.2-0.6,3.1,0l33.6,22.1
				c0.8,0.5,1.3,1.4,1.3,2.4v42.2c0,1.6-1.3,2.9-2.9,2.9H56.6c-1.6,0-2.9-1.3-2.9-2.9V53.3h-8.9v16.4C44.8,71.2,43.5,72.5,42,72.5z"
				/>
		</g>
	</g>
</g>
</svg>
