<?xml version="1.0" encoding="utf-8"?>
<!-- Generator: Adobe Illustrator 18.0.0, SVG Export Plug-In . SVG Version: 6.00 Build 0)  -->
<!DOCTYPE svg PUBLIC "-//W3C//DTD SVG 1.1//EN" "http://www.w3.org/Graphics/SVG/1.1/DTD/svg11.dtd">
<svg version="1.1" id="Layer_1" xmlns="http://www.w3.org/2000/svg" xmlns:xlink="http://www.w3.org/1999/xlink" x="0px" y="0px"
	 width="225px" height="41px" viewBox="0 0 225 41" enable-background="new 0 0 225 41" xml:space="preserve">
<path fill="#FFFFFF" d="M94.1,35.3"/>
<path fill="#EB6550" d="M9,10.8L9,10.8L9,10.8L9,10.8z"/>
<path fill="#6B2A4A" d="M59.6,5.7v12.1c0,0.4-0.1,0.5-0.3,0.7s-0.4,0.1-0.7,0.1s-0.5,0-0.7-0.1s-0.3-0.4-0.3-0.7V3.2
	c0-0.4,0.1-0.8,0.4-1C58.4,2.1,58.6,2,59,2c0.4,0,0.8,0.1,1,0.3c0.1,0.1,0.3,0.4,0.4,0.7L66,16.1l5.6-13.2c0.1-0.3,0.3-0.5,0.5-0.7
	C72.2,2.1,72.6,2,73,2s0.8,0.1,1,0.3c0.3,0.1,0.4,0.5,0.4,1v14.7c0,0.4-0.1,0.5-0.3,0.7c-0.1,0.1-0.4,0.1-0.7,0.1s-0.5,0-0.7-0.1
	s-0.3-0.4-0.3-0.7V5.8l-5.2,12.1c-0.1,0.3-0.3,0.4-0.4,0.5s-0.4,0.3-0.8,0.3c-0.3,0-0.5-0.1-0.8-0.3c-0.1-0.1-0.3-0.4-0.4-0.5
	L59.6,5.7z"/>
<path fill="#6B2A4A" d="M79.8,23.1c-0.1,0.3-0.3,0.4-0.4,0.5c-0.1,0.1-0.3,0.1-0.5,0.1c-0.3,0-0.5-0.1-0.7-0.3
	c-0.1-0.1-0.3-0.4-0.3-0.7c0-0.1,0-0.1,0-0.3s0.1-0.3,0.1-0.4l1.8-3.9L75.6,8.1c0-0.1-0.1-0.3-0.1-0.4s-0.1-0.3-0.1-0.4
	c0-0.3,0.1-0.5,0.4-0.7c0.3-0.1,0.5-0.3,0.8-0.3c0.4,0,0.7,0.3,0.8,0.7l3.5,8.7L84.6,7c0.1-0.3,0.1-0.4,0.3-0.4
	c0.1-0.1,0.3-0.1,0.4-0.1c0.3,0,0.5,0.1,0.8,0.3c0.3,0.1,0.4,0.4,0.4,0.7c0,0.1,0,0.3-0.1,0.4c0,0.1-0.1,0.3-0.1,0.4L79.8,23.1z"/>
<path fill="#6B2A4A" d="M91.9,2.9c0-0.4,0.1-0.7,0.3-0.8C92.4,2,92.6,1.8,93,1.8c0.3,0,0.5,0.1,0.8,0.3c0.1,0.1,0.3,0.4,0.3,0.8v6h9
	v-6c0-0.4,0.1-0.7,0.3-0.8s0.4-0.3,0.8-0.3c0.3,0,0.5,0.1,0.8,0.3c0,0.3,0.1,0.5,0.1,0.8v14.8c0,0.4-0.1,0.7-0.3,0.8
	s-0.4,0.3-0.8,0.3c-0.3,0-0.5-0.1-0.8-0.3c-0.1-0.1-0.3-0.4-0.3-0.8v-6.9h-9v7.1c0,0.4-0.1,0.7-0.3,0.8c-0.1,0.1-0.4,0.3-0.8,0.3
	c-0.3,0-0.5-0.1-0.8-0.3c-0.1-0.1-0.3-0.4-0.3-0.8v-15H91.9z"/>
<path fill="#6B2A4A" d="M107,12.6c0-1,0.1-1.9,0.4-2.7c0.3-0.8,0.7-1.5,1.2-2s1.1-1,1.9-1.2c0.7-0.3,1.5-0.4,2.3-0.4
	c0.8,0,1.6,0.1,2.3,0.4c0.7,0.3,1.4,0.7,1.9,1.2s1,1.2,1.2,2c0.3,0.8,0.4,1.6,0.4,2.7c0,1-0.1,1.9-0.4,2.7c-0.3,0.8-0.7,1.5-1.2,2
	s-1.1,1-1.9,1.2c-0.7,0.3-1.5,0.4-2.4,0.4c-0.8,0-1.6-0.1-2.3-0.4c-0.7-0.3-1.4-0.7-1.9-1.2c-0.5-0.5-1-1.2-1.2-2
	C107.2,14.5,107,13.7,107,12.6z M109.1,12.6c0,1.5,0.3,2.6,1,3.4c0.7,0.8,1.5,1.2,2.7,1.2c1.2,0,2-0.4,2.7-1.2s1-1.9,1-3.4
	s-0.3-2.6-1-3.4C114.8,8.4,114,8,112.7,8c-1.2,0-2,0.4-2.7,1.2C109.5,10.1,109.1,11.2,109.1,12.6z"/>
<path fill="#6B2A4A" d="M133.7,6.3c1.2,0,2.2,0.3,3,1c0.7,0.7,1.1,1.8,1.1,3.1v7.5c0,0.5-0.3,0.8-1,0.8s-1.1-0.3-1.1-0.8V11
	c0-0.4,0-0.8-0.1-1.2c-0.1-0.4-0.1-0.7-0.4-1c-0.1-0.3-0.4-0.4-0.8-0.5c-0.3-0.1-0.7-0.1-1.2-0.1c-0.7,0-1.1,0.1-1.5,0.4
	c-0.4,0.3-0.7,0.7-1,1.1c-0.3,0.4-0.4,1-0.5,1.5c-0.1,0.5-0.1,1.1-0.1,1.6v5.2c0,0.5-0.3,0.8-1,0.8s-1.1-0.3-1.1-0.8V11
	c0-0.4,0-0.8-0.1-1.2s-0.1-0.7-0.4-1c-0.1-0.3-0.4-0.4-0.8-0.5c-0.3-0.1-0.7-0.1-1.2-0.1c-0.7,0-1.1,0.1-1.5,0.4
	c-0.4,0.3-0.7,0.7-1,1.1c-0.3,0.4-0.4,1-0.5,1.5c-0.1,0.5-0.1,1.1-0.1,1.6v5c0,0.4-0.1,0.7-0.3,0.7c-0.1,0.1-0.4,0.1-0.7,0.1
	s-0.5,0-0.7-0.1c-0.1-0.1-0.3-0.4-0.3-0.7V7.4c0-0.4,0.1-0.5,0.3-0.7c0.1-0.1,0.4-0.1,0.7-0.1s0.5,0,0.7,0.1
	c0.1,0.1,0.3,0.4,0.3,0.7v1.1c0,0,0.1-0.3,0.1-0.4c0.1-0.3,0.3-0.5,0.7-0.8c0.3-0.3,0.7-0.5,1.1-0.7c0.5-0.3,1.1-0.3,1.8-0.3
	c1,0,1.8,0.1,2.3,0.5c0.5,0.4,1.1,1,1.4,1.6c0.3-0.7,0.8-1.2,1.5-1.6C131.9,6.5,132.7,6.3,133.7,6.3z"/>
<path fill="#6B2A4A" d="M150.7,12.3c0,0.5-0.3,0.8-1,0.8h-8c0,1.2,0.3,2.3,1,3c0.7,0.7,1.5,1.1,2.7,1.1c0.4,0,0.8,0,1.2-0.1
	c0.3-0.1,0.7-0.3,0.8-0.4c0.3-0.1,0.4-0.3,0.5-0.5c0.1-0.1,0.3-0.3,0.4-0.4c0.1-0.1,0.3-0.3,0.3-0.4c0.1-0.1,0.3-0.1,0.4-0.1
	c0.3,0,0.4,0.1,0.7,0.3s0.3,0.3,0.3,0.5c0,0.3-0.1,0.4-0.3,0.7s-0.3,0.4-0.5,0.7s-0.5,0.5-0.8,0.7c-0.4,0.3-0.8,0.4-1.4,0.5
	s-1.1,0.3-1.8,0.3c-1,0-1.6-0.1-2.4-0.4c-0.7-0.3-1.4-0.7-1.9-1.4c-0.5-0.5-1-1.2-1.2-2c-0.3-0.8-0.4-1.6-0.4-2.6s0.1-1.8,0.4-2.6
	c0.3-0.8,0.7-1.5,1.1-2c0.4-0.5,1.1-1,1.8-1.4c0.7-0.3,1.5-0.4,2.3-0.4c1,0,1.6,0.1,2.3,0.4s1.2,0.7,1.8,1.2
	c0.4,0.5,0.8,1.2,1.1,1.9C150.5,10.7,150.7,11.5,150.7,12.3z M145.2,8.1c-0.5,0-1.1,0.1-1.5,0.3c-0.4,0.1-0.8,0.4-1.1,0.7
	c-0.3,0.3-0.5,0.7-0.7,1.1c-0.1,0.4-0.3,0.8-0.3,1.4h6.9c0-0.4-0.1-0.8-0.3-1.4c-0.1-0.4-0.4-0.8-0.7-1.1c-0.3-0.3-0.7-0.5-1.1-0.7
	C146.2,8.1,145.8,8.1,145.2,8.1z"/>
<path fill="#6B2A4A" d="M159.1,11.1v5.7h8.4c0.3,0,0.5,0.1,0.7,0.3c0.1,0.1,0.1,0.4,0.1,0.7s0,0.5-0.1,0.7c-0.1,0.1-0.4,0.3-0.7,0.3
	h-9.4c-0.3,0-0.5-0.1-0.8-0.3c-0.1-0.1-0.3-0.4-0.3-0.8V3.2c0-0.4,0.1-0.7,0.3-0.8c0.1-0.1,0.4-0.3,0.8-0.3h9.4
	c0.3,0,0.5,0.1,0.7,0.3c0.1,0.1,0.1,0.4,0.1,0.7s0,0.5-0.1,0.7c-0.1,0.1-0.4,0.3-0.7,0.3h-8.4v5.3h7.9c0.3,0,0.5,0.1,0.7,0.3
	c0.1,0.1,0.1,0.4,0.1,0.7c0,0.3,0,0.5-0.1,0.7c-0.1,0.1-0.4,0.3-0.7,0.3h-7.9V11.1z"/>
<path fill="#6B2A4A" d="M172,17.9c0,0.4-0.1,0.7-0.3,0.7c-0.1,0.1-0.4,0.1-0.7,0.1c-0.3,0-0.5,0-0.7-0.1c-0.1-0.1-0.3-0.4-0.3-0.7
	V7.6c0-0.4,0.1-0.5,0.3-0.7c0.1-0.1,0.4-0.1,0.7-0.1c0.3,0,0.5,0,0.7,0.1c0.1,0.1,0.3,0.4,0.3,0.7v1.1c0.3-0.4,0.5-0.8,1-1.1
	c0.3-0.3,0.7-0.5,1.2-0.8c0.5-0.3,1.2-0.4,1.9-0.4c1.2,0,2.3,0.4,3,1.1c0.8,0.7,1.2,1.8,1.2,3.3V18c0,0.5-0.3,0.8-1,0.8
	s-1.1-0.3-1.1-0.8v-6.9c0-1-0.1-1.6-0.5-2.2c-0.4-0.5-1.1-0.7-2-0.7c-0.7,0-1.1,0.1-1.6,0.4c-0.4,0.3-0.8,0.7-1.1,1.1
	c-0.3,0.4-0.5,1-0.7,1.5c-0.1,0.5-0.1,1.1-0.1,1.6v5H172z"/>
<path fill="#6B2A4A" d="M193.1,12.3c0,0.5-0.3,0.8-1,0.8h-8c0,1.2,0.3,2.3,1,3s1.5,1.1,2.7,1.1c0.4,0,0.8,0,1.2-0.1
	c0.3-0.1,0.7-0.3,0.8-0.4c0.3-0.1,0.4-0.3,0.5-0.5c0.1-0.1,0.3-0.3,0.4-0.4c0.1-0.1,0.3-0.3,0.3-0.4c0.1-0.1,0.3-0.1,0.4-0.1
	c0.3,0,0.4,0.1,0.7,0.3s0.3,0.3,0.3,0.5c0,0.3-0.1,0.4-0.3,0.7c-0.1,0.3-0.3,0.4-0.5,0.7c-0.3,0.3-0.5,0.5-0.8,0.7
	c-0.4,0.3-0.8,0.4-1.4,0.5c-0.5,0.1-1.1,0.3-1.8,0.3c-1,0-1.6-0.1-2.4-0.4c-0.7-0.3-1.4-0.7-1.9-1.4c-0.5-0.5-1-1.2-1.2-2
	c-0.3-0.8-0.4-1.6-0.4-2.6s0.1-1.8,0.4-2.6c0.3-0.8,0.7-1.5,1.1-2c0.5-0.5,1.1-1,1.8-1.4c0.7-0.3,1.5-0.4,2.3-0.4
	c1,0,1.6,0.1,2.3,0.4s1.2,0.7,1.8,1.2c0.4,0.5,0.8,1.2,1.1,1.9C192.9,10.7,193.1,11.5,193.1,12.3z M187.6,8.1
	c-0.5,0-1.1,0.1-1.5,0.3c-0.4,0.1-0.8,0.4-1.1,0.7c-0.3,0.3-0.5,0.7-0.7,1.1c-0.1,0.4-0.3,0.8-0.3,1.4h6.9c0-0.4-0.1-0.8-0.3-1.4
	c-0.1-0.4-0.4-0.8-0.7-1.1c-0.3-0.3-0.7-0.5-1.1-0.7C188.6,8.1,188.2,8.1,187.6,8.1z"/>
<path fill="#6B2A4A" d="M196.8,17.9c0,0.4-0.1,0.7-0.3,0.7c-0.1,0.1-0.4,0.1-0.7,0.1s-0.5,0-0.7-0.1c-0.1-0.1-0.3-0.4-0.3-0.7V7.6
	c0-0.4,0.1-0.5,0.3-0.7c0.1-0.1,0.4-0.1,0.7-0.1s0.5,0,0.7,0.1c0.1,0.1,0.3,0.4,0.3,0.7v1.4c0.4-0.8,1-1.4,1.6-1.8
	c0.7-0.4,1.4-0.5,2-0.5c0.4,0,0.7,0.1,0.8,0.3c0.1,0.1,0.3,0.4,0.3,0.8c0,0.4-0.1,0.7-0.3,0.8c-0.1,0.1-0.4,0.3-0.8,0.3
	c-2.3,0-3.5,1.5-3.5,4.5v4.6H196.8z"/>
<path fill="#6B2A4A" d="M210.1,16.7c-0.3,0.5-0.8,1-1.5,1.4c-0.7,0.4-1.5,0.5-2.4,0.5c-0.8,0-1.6-0.1-2.2-0.4
	c-0.7-0.3-1.2-0.7-1.6-1.2s-0.8-1.2-1-2c-0.3-0.8-0.4-1.6-0.4-2.6s0.1-1.8,0.4-2.4c0.3-0.8,0.5-1.4,1-1.9s1-1,1.6-1.2
	c0.7-0.3,1.4-0.4,2.2-0.4c0.5,0,1,0,1.4,0.1c0.4,0.1,0.8,0.3,1.1,0.5c0.3,0.3,0.7,0.4,0.8,0.7c0.3,0.3,0.4,0.5,0.5,0.8V7.4
	c0-0.4,0.1-0.5,0.3-0.7s0.4-0.1,0.7-0.1c0.3,0,0.5,0,0.7,0.1c0.1,0.1,0.3,0.4,0.3,0.7v10.9c0,1.1-0.1,1.9-0.4,2.6
	c-0.3,0.7-0.7,1.4-1.1,1.8c-0.5,0.4-1.1,0.8-1.8,1s-1.4,0.3-2.2,0.3c-0.7,0-1.2,0-1.9-0.1c-0.5-0.1-1.1-0.3-1.5-0.4
	c-0.4-0.1-0.7-0.4-1-0.5c-0.3-0.1-0.4-0.4-0.4-0.7c0-0.1,0-0.3,0.1-0.4c0.1-0.1,0.1-0.3,0.3-0.4c0-0.1,0.1-0.1,0.3-0.3
	c0.1-0.1,0.3-0.1,0.4-0.1c0.1,0,0.3,0,0.4,0.1l0.1,0.1c0.4,0.3,1,0.5,1.5,0.7c0.5,0.3,1.1,0.3,1.8,0.3c1,0,1.8-0.3,2.4-0.8
	c0.7-0.5,1-1.5,1-2.9v-1.8H210.1z M203.1,12.6c0,1.4,0.3,2.4,1,3.3c0.5,0.8,1.5,1.2,2.6,1.2c1.1,0,2-0.4,2.6-1.2
	c0.5-0.8,1-1.9,1-3.3s-0.3-2.4-1-3.3c-0.7-0.8-1.5-1.1-2.7-1.1c-1.1,0-2,0.4-2.6,1.2C203.4,10.3,203.1,11.2,203.1,12.6z"/>
<path fill="#6B2A4A" d="M217.6,23.1c-0.1,0.3-0.3,0.4-0.4,0.5c-0.1,0.1-0.3,0.1-0.5,0.1c-0.3,0-0.5-0.1-0.7-0.3
	c-0.1-0.1-0.3-0.4-0.3-0.7c0-0.1,0-0.1,0-0.3s0.1-0.3,0.1-0.4l1.8-3.9l-4.2-10.1c0-0.1-0.1-0.3-0.1-0.4s-0.1-0.3-0.1-0.4
	c0-0.3,0.1-0.5,0.4-0.7c0.3-0.1,0.5-0.3,0.8-0.3c0.4,0,0.7,0.3,0.8,0.7l3.5,8.7l3.7-8.7c0.1-0.3,0.1-0.4,0.3-0.4
	c0.1-0.1,0.3-0.1,0.4-0.1c0.3,0,0.5,0.1,0.8,0.3c0.3,0.1,0.4,0.4,0.4,0.7c0,0.1,0,0.3-0.1,0.4c0,0.1-0.1,0.3-0.1,0.4L217.6,23.1z"/>
<path fill="#FFFFFF" d="M64.8,31.6c1.2,0.3,2.3,0.8,3,1.5c0.7,0.7,1.1,1.8,1.1,3c0,0.7-0.1,1.4-0.4,2c-0.3,0.5-0.7,1.1-1.2,1.5
	s-1.1,0.7-1.9,0.8c-0.7,0.1-1.5,0.3-2.3,0.3c-1,0-1.6-0.1-2.3-0.3c-0.7-0.1-1.2-0.3-1.6-0.5c-0.4-0.3-0.8-0.4-1.2-0.7
	c-0.3-0.3-0.5-0.4-0.7-0.7c-0.1-0.1-0.3-0.3-0.4-0.4c0-0.1-0.1-0.3-0.1-0.4c0-0.1,0.1-0.3,0.3-0.4s0.3-0.3,0.4-0.3
	c0.1,0,0.3,0,0.4,0.1c0.1,0.1,0.3,0.1,0.4,0.3c0.1,0.1,0.4,0.4,0.7,0.5c0.3,0.3,0.5,0.4,1,0.7c0.4,0.1,0.8,0.4,1.4,0.5
	c0.5,0.1,1.2,0.1,1.9,0.1c0.5,0,1.1,0,1.6-0.1c0.5-0.1,1-0.3,1.4-0.7c0.4-0.3,0.7-0.7,0.8-1c0.3-0.4,0.3-0.8,0.3-1.4
	c0-0.8-0.3-1.6-0.8-2.2c-0.5-0.5-1.4-1-2.7-1.4l-1.9-0.4c-0.8-0.1-1.5-0.4-2-0.7s-1.1-0.5-1.4-1c-0.4-0.4-0.7-0.8-0.8-1.2
	c-0.1-0.4-0.3-1-0.3-1.6c0-0.5,0.1-1.1,0.3-1.6c0.3-0.5,0.5-1,1-1.4c0.4-0.4,1.1-0.7,1.8-1c0.7-0.3,1.5-0.4,2.4-0.4
	c0.8,0,1.6,0.1,2.2,0.3c0.7,0.1,1.1,0.4,1.6,0.5c0.4,0.3,0.8,0.4,1.1,0.7s0.5,0.4,0.7,0.7c0.3,0.3,0.3,0.5,0.3,0.7s-0.1,0.3-0.3,0.4
	c0.1,0.3,0,0.4-0.1,0.4c-0.1,0-0.3,0-0.3,0c-0.1,0-0.3-0.1-0.4-0.3c-0.1-0.1-0.3-0.4-0.5-0.5c-0.3-0.3-0.5-0.4-0.8-0.7
	c-0.4-0.3-0.8-0.4-1.4-0.5s-1.1-0.3-1.9-0.3c-0.7,0-1.4,0.1-1.9,0.3s-1,0.4-1.2,0.7s-0.5,0.7-0.7,1c-0.1,0.4-0.1,0.7-0.1,1
	c0,0.4,0,0.7,0.1,1s0.3,0.5,0.5,0.8s0.5,0.5,1.1,0.7c0.4,0.3,1,0.4,1.6,0.5L64.8,31.6z"/>
<path fill="#FFFFFF" d="M79.2,33.3v-0.8c0-1.1-0.3-1.8-0.8-2.3c-0.5-0.5-1.4-0.8-2.6-0.8c-0.4,0-1,0-1.2,0.1c-0.4,0.1-0.7,0.3-1,0.4
	c-0.3,0.1-0.5,0.3-0.7,0.4c-0.1,0.1-0.4,0.3-0.5,0.4c-0.1,0.1-0.3,0.3-0.4,0.3s-0.1,0.1-0.3,0.1s-0.3,0-0.4-0.1
	c-0.1-0.1-0.1-0.3-0.1-0.4c0-0.1,0-0.3,0.1-0.4c0.1-0.1,0.1-0.3,0.4-0.4c0.3-0.3,0.7-0.5,1.1-0.8c0.4-0.3,0.7-0.4,1.1-0.5
	c0.4-0.1,0.7-0.1,1.1-0.3c0.3,0,0.7-0.1,1-0.1c0.8,0,1.6,0.1,2.2,0.3c0.5,0.3,1.1,0.5,1.5,0.8c0.4,0.4,0.7,0.8,0.8,1.4
	c0.1,0.5,0.3,1,0.3,1.5v7.9c0,0.4-0.3,0.5-0.7,0.5c-0.3,0-0.5-0.1-0.5-0.3s-0.1-0.4-0.1-0.7v-1.5c-0.3,0.3-0.5,0.7-0.8,1
	c-0.3,0.3-0.7,0.5-1,0.8c-0.4,0.3-0.8,0.4-1.4,0.5s-1.1,0.1-1.6,0.1c-1.4,0-2.4-0.3-3-1c-0.7-0.5-1-1.4-1-2.3c0-0.5,0.1-1.1,0.3-1.6
	c0.3-0.5,0.5-1,1.1-1.2c0.5-0.4,1.2-0.7,2.2-0.8c1-0.3,2-0.3,3.4-0.3L79.2,33.3z M77.3,34.3c-1.1,0-2,0.1-2.7,0.3s-1.2,0.3-1.6,0.5
	c-0.4,0.3-0.7,0.5-0.8,0.8c-0.1,0.4-0.3,0.7-0.3,1.1c0,0.8,0.3,1.4,0.7,1.6c0.4,0.4,1.1,0.5,2.2,0.5c0.4,0,0.8,0,1.2-0.1
	c0.4-0.1,0.8-0.3,1.1-0.4c0.4-0.1,0.7-0.4,1-0.7c0.3-0.3,0.5-0.5,0.7-0.8c0.3-0.5,0.4-1.1,0.4-1.9v-1.1L77.3,34.3z"/>
<path fill="#FFFFFF" d="M83.2,24.3c0-0.3,0-0.4,0.1-0.5c0.1-0.1,0.3-0.1,0.5-0.1c0.3,0,0.4,0,0.5,0.1c0.1,0.1,0.1,0.3,0.1,0.5v15.6
	c0,0.3,0,0.4-0.1,0.5c-0.1,0.1-0.3,0.1-0.5,0.1s-0.4,0-0.5-0.1c-0.1-0.1-0.1-0.3-0.1-0.5V24.3z"/>
<path fill="#FFFFFF" d="M91.1,24.7c-0.5,0-1.1,0.1-1.4,0.4c-0.4,0.3-0.5,1-0.5,1.8v1.6h2.6c0.3,0,0.4,0.3,0.4,0.7
	c0,0.4-0.1,0.5-0.4,0.5h-2.6v10.2c0,0.3,0,0.4-0.1,0.5c-0.1,0.1-0.3,0.1-0.5,0.1c-0.3,0-0.4,0-0.5-0.1c-0.1-0.1-0.1-0.3-0.1-0.5
	V29.7h-1.5c-0.1,0-0.3,0-0.4-0.1c0-0.1-0.1-0.3-0.1-0.4c0-0.1,0-0.3,0.1-0.4c0-0.1,0.1-0.1,0.4-0.1h1.5v-1.8c0-1,0.3-1.6,0.8-2.3
	c0.5-0.5,1.4-0.8,2.4-0.8c0.3,0,0.5,0,1,0.1c0.3,0,0.5,0.1,0.8,0.3s0.4,0.3,0.5,0.4c0.1,0.1,0.3,0.3,0.3,0.4c0,0.3,0,0.4-0.1,0.5
	c-0.1,0.1-0.1,0.1-0.3,0.1c-0.1,0-0.1,0-0.3-0.1c-0.1,0-0.3-0.1-0.4-0.1c-0.1-0.1-0.4-0.1-0.5-0.3C91.7,24.7,91.4,24.7,91.1,24.7z"
	/>
<path fill="#FFFFFF" d="M92.5,34.5c0-1,0.1-1.9,0.4-2.7s0.7-1.5,1.2-2s1.1-1,1.8-1.2c0.7-0.3,1.5-0.4,2.3-0.4c0.8,0,1.6,0.1,2.3,0.4
	c0.7,0.3,1.4,0.7,1.8,1.2c0.5,0.5,1,1.2,1.2,2c0.3,0.8,0.4,1.6,0.4,2.7c0,1-0.1,1.9-0.4,2.7c-0.3,0.8-0.7,1.5-1.2,2s-1.1,1-1.8,1.2
	c-0.7,0.3-1.5,0.4-2.3,0.4c-0.8,0-1.6-0.1-2.3-0.4s-1.4-0.7-1.8-1.2c-0.5-0.5-1-1.2-1.2-2C92.6,36.4,92.5,35.4,92.5,34.5z M94,34.5
	c0,1.6,0.4,2.9,1.1,3.8c0.7,1,1.8,1.4,3.1,1.4c1.4,0,2.4-0.4,3.1-1.4c0.7-1,1.1-2.2,1.1-3.8c0-1.6-0.4-2.9-1.1-3.8
	c-0.7-1-1.8-1.4-3.1-1.4c-1.4,0-2.4,0.4-3.1,1.4C94.3,31.6,94,32.8,94,34.5z"/>
<path fill="#FFFFFF" d="M107.3,39.9c0,0.3,0,0.4-0.1,0.5c-0.1,0.1-0.3,0.1-0.5,0.1c-0.3,0-0.4,0-0.5-0.1c-0.1-0.1-0.1-0.3-0.1-0.5
	V29c0-0.3,0-0.4,0.1-0.5c0.1-0.1,0.3-0.1,0.4-0.1c0.3,0,0.4,0,0.5,0.1c0.1,0.1,0.1,0.3,0.1,0.5v2.2c0.3-0.5,0.5-1,0.8-1.4
	c0.3-0.4,0.7-0.7,1.1-1c0.4-0.3,0.7-0.4,1.1-0.5c0.4-0.1,0.7-0.1,1.1-0.1c0.3,0,0.5,0,0.7,0.1c0.1,0.1,0.3,0.3,0.3,0.5
	c0,0.3,0,0.5-0.1,0.5s-0.4,0.4-0.7,0.4c-1.2,0-2.3,0.4-3,1.2c-0.7,0.8-1.1,2-1.1,3.7V39.9z"/>
<path fill="#FFFFFF" d="M122.9,39.9c0,0.3,0,0.4-0.1,0.5c-0.1,0.1-0.3,0.1-0.4,0.1c-0.3,0-0.4,0-0.5-0.1c-0.1-0.1-0.1-0.3-0.1-0.5
	v-1.6c-0.4,0.8-1,1.5-1.8,1.9c-0.7,0.4-1.6,0.5-2.6,0.5c-0.8,0-1.6-0.1-2.2-0.4c-0.7-0.3-1.2-0.8-1.6-1.4c-0.4-0.5-0.8-1.2-1.1-2
	c-0.3-0.8-0.4-1.6-0.4-2.6s0.1-1.8,0.4-2.6c0.3-0.8,0.5-1.5,1.1-2c0.4-0.5,1-1,1.6-1.4c0.7-0.3,1.4-0.4,2.3-0.4s1.9,0.1,2.6,0.5
	c0.7,0.4,1.2,1,1.6,1.6v-5.8c0-0.3,0-0.4,0.1-0.5s0.3-0.1,0.5-0.1c0.3,0,0.4,0,0.5,0.1s0.1,0.3,0.1,0.5v15.6H122.9z M113.6,34.5
	c0,0.7,0.1,1.4,0.3,2c0.1,0.7,0.4,1.2,0.8,1.6c0.3,0.4,0.8,0.8,1.2,1.1c0.5,0.3,1.1,0.4,1.8,0.4s1.2-0.1,1.8-0.4s1-0.7,1.2-1.1
	c0.4-0.4,0.5-1,0.8-1.6c0.1-0.7,0.3-1.4,0.3-2c0-1.6-0.4-2.9-1.1-3.7c-0.8-0.8-1.8-1.4-3.1-1.4c-0.7,0-1.2,0.1-1.8,0.4
	c-0.5,0.3-1,0.5-1.2,1.1c-0.3,0.4-0.5,1-0.7,1.6C113.6,33,113.6,33.8,113.6,34.5z"/>
<g>
	<path fill="#FFFFFF" d="M2.6,40.7C1.8,40.7,1,40,1,39.1V16c0-0.5,0.3-1.1,0.7-1.4l3-2C5.4,12,6.4,12.3,6.8,13
		c0.5,0.7,0.3,1.8-0.4,2.2l-2.3,1.5v22.2C4.3,40,3.6,40.7,2.6,40.7z"/>
	<path fill="#FFFFFF" d="M10.9,11.6c-0.8,0-1.6-0.7-1.6-1.6V5.1c0-0.8,0.7-1.6,1.6-1.6c1,0,1.6,0.8,1.6,1.6V10
		C12.6,11,11.9,11.6,10.9,11.6z"/>
	<path fill="#FFFFFF" d="M22.2,41c-0.8,0-1.6-0.7-1.6-1.6V28.8c0-0.8,0.7-1.6,1.6-1.6h8c0.8,0,1.6,0.7,1.6,1.6v8.8h6V16.8l-17-11.1
		l-9.1,5.8c-0.7,0.4-1.8,0.3-2.2-0.5c-0.4-0.7-0.3-1.8,0.5-2.2l10.1-6.4c0.5-0.3,1.2-0.3,1.8,0l18.5,12.2c0.4,0.3,0.7,0.8,0.7,1.4
		v23.4c0,0.8-0.7,1.6-1.6,1.6h-9.2c-0.8,0-1.6-0.7-1.6-1.6v-8.8h-4.9v9.1C23.8,40.3,23.2,41,22.2,41z"/>
</g>
</svg>
