<?xml version="1.0" encoding="utf-8"?>
<!-- Generator: Adobe Illustrator 19.1.0, SVG Export Plug-In . SVG Version: 6.00 Build 0)  -->
<svg version="1.1" id="Layer_1" xmlns="http://www.w3.org/2000/svg" xmlns:xlink="http://www.w3.org/1999/xlink" x="0px" y="0px"
	 viewBox="0 0 31 27.4" style="enable-background:new 0 0 31 27.4;" xml:space="preserve">
<style type="text/css">
	.st0{fill:#969596;}
</style>
<g>
	<path class="st0" d="M6.5,26.9c0-2,0-3.7,0-5.6c-1.9,0-3.6,0-5.8,0c0-3.4-0.5-6.7,0.2-9.7C1.2,10,3.6,8,5.1,7.9
		C12.1,7.5,19,7.7,26,7.8c2.8,0,4.4,1.8,4.5,4.5c0.1,2.8,0,5.7,0,8.8c-2,0.1-3.7,0.2-5.8,0.3c-0.1,1.8-0.2,3.6-0.4,5.6
		C18.6,26.9,12.8,26.9,6.5,26.9z M9.7,24c4.1,0,7.8,0,11.6,0c0-2.5,0-4.7,0-7c-4,0-7.8,0-11.6,0C9.7,19.4,9.7,21.6,9.7,24z"/>
	<path class="st0" d="M24.4,6.1c-5.9,0-11.6,0-17.5,0c0-1.9,0-3.6,0-5.6c5.8,0,11.6,0,17.5,0C24.4,2.3,24.4,4,24.4,6.1z"/>
</g>
</svg>
