<?xml version="1.0" encoding="utf-8"?>
<!-- Generator: Adobe Illustrator 19.1.0, SVG Export Plug-In . SVG Version: 6.00 Build 0)  -->
<svg version="1.1" id="Layer_1" xmlns="http://www.w3.org/2000/svg" xmlns:xlink="http://www.w3.org/1999/xlink" x="0px" y="0px"
	 viewBox="-282 403.7 31 31.2" style="enable-background:new -282 403.7 31 31.2;" xml:space="preserve">
<style type="text/css">
	.st0{fill:none;stroke:#959494;stroke-linecap:round;stroke-miterlimit:10;}
	.st1{fill:none;stroke:#959494;stroke-miterlimit:10;}
</style>
<g>
	<path class="st0" d="M-275.9,421.8c-0.2-0.8-0.3-1.7-0.3-2.5c0-6.6,5.4-12,12-12c6.6,0,12,5.4,12,12c0,6.6-5.4,12-12,12
		c-3.2,0-6-1.2-8.2-3.2"/>
	<polyline class="st1" points="-271.1,417.9 -276,422.8 -280.8,417.9 	"/>
</g>
<g>
	<g>
		<path class="st0" d="M-275.9,421.8c-0.2-0.8-0.3-1.7-0.3-2.5c0-6.6,5.4-12,12-12c6.6,0,12,5.4,12,12c0,6.6-5.4,12-12,12
			c-3.2,0-6-1.2-8.2-3.2"/>
		<polyline class="st1" points="-271.1,417.9 -276,422.8 -280.8,417.9 		"/>
	</g>
</g>
</svg>
